<?xml version="1.0" encoding="UTF-8" standalone="no"?> <!-- Created with Vectornator for iOS (http://vectornator.io/) --><!DOCTYPE svg PUBLIC "-//W3C//DTD SVG 1.1//EN" "http://www.w3.org/Graphics/SVG/1.1/DTD/svg11.dtd">
<svg height="100%" style="fill-rule:nonzero;clip-rule:evenodd;stroke-linecap:round;stroke-linejoin:round;" xmlns:xlink="http://www.w3.org/1999/xlink" xmlns="http://www.w3.org/2000/svg" xml:space="preserve" width="100%" xmlns:vectornator="http://vectornator.io" version="1.1" viewBox="0 0 150 150">
<metadata>
<vectornator:setting key="DimensionsVisible" value="1"/>
<vectornator:setting key="PencilOnly" value="0"/>
<vectornator:setting key="SnapToPoints" value="0"/>
<vectornator:setting key="OutlineMode" value="0"/>
<vectornator:setting key="CMYKEnabledKey" value="0"/>
<vectornator:setting key="RulersVisible" value="1"/>
<vectornator:setting key="SnapToEdges" value="0"/>
<vectornator:setting key="GuidesVisible" value="1"/>
<vectornator:setting key="DisplayWhiteBackground" value="0"/>
<vectornator:setting key="doHistoryDisabled" value="0"/>
<vectornator:setting key="SnapToGuides" value="1"/>
<vectornator:setting key="TimeLapseWatermarkDisabled" value="0"/>
<vectornator:setting key="Units" value="Points"/>
<vectornator:setting key="DynamicGuides" value="0"/>
<vectornator:setting key="IsolateActiveLayer" value="0"/>
<vectornator:setting key="SnapToGrid" value="0"/>
</metadata>
<defs/>
<g id="Ceiling Cave" vectornator:layerName="Ceiling Cave">
<path stroke="#ffffff" stroke-width="1" d="M43.9958+15.5385C41.3604+15.8679+37.3721+6.44561+36.2484+4.35873C36.0548+3.99917+34.7817+0.708086+34.986+0.546892L35.2336+0.6294L74.177+0.6294L74.9195+0.546892L74.9195+0.794414C74.4426+1.31492+72.0778+10.3275+70.8519+10.2332C70.1278+10.1775+69.7284+8.23766+68.7315+7.97255C67.6874+8.98923+67.0841+12.3695+65.8025+13.418C65.2873+13.8396+64.6807+14.0285+64.0616+14.2348C63.2534+14.5042+62.4356+14.4661+61.7596+13.9131C60.5127+12.8929+61.2187+9.1689+59.7052+9.1689C58.2401+9.1689+55.6298+13.85+53.8389+13.253C50.3431+12.0877+48.0252+7.24797+47.1063+7.51051C45.9036+7.85414+45.5914+15.339+43.9958+15.5385Z" fill="#000000" stroke-linecap="butt" opacity="1" stroke-linejoin="round"/>
</g>
</svg>
