<?xml version="1.0" encoding="UTF-8" standalone="no"?> <!-- Created with Vectornator for iOS (http://vectornator.io/) --><!DOCTYPE svg PUBLIC "-//W3C//DTD SVG 1.1//EN" "http://www.w3.org/Graphics/SVG/1.1/DTD/svg11.dtd">
<svg height="100%" style="fill-rule:nonzero;clip-rule:evenodd;stroke-linecap:round;stroke-linejoin:round;" xmlns:xlink="http://www.w3.org/1999/xlink" xmlns="http://www.w3.org/2000/svg" xml:space="preserve" width="100%" xmlns:vectornator="http://vectornator.io" version="1.1" viewBox="0 0 100 100">
<metadata>
<vectornator:setting key="DimensionsVisible" value="1"/>
<vectornator:setting key="PencilOnly" value="0"/>
<vectornator:setting key="SnapToPoints" value="0"/>
<vectornator:setting key="OutlineMode" value="0"/>
<vectornator:setting key="CMYKEnabledKey" value="0"/>
<vectornator:setting key="RulersVisible" value="1"/>
<vectornator:setting key="SnapToEdges" value="0"/>
<vectornator:setting key="GuidesVisible" value="1"/>
<vectornator:setting key="DisplayWhiteBackground" value="0"/>
<vectornator:setting key="doHistoryDisabled" value="0"/>
<vectornator:setting key="SnapToGuides" value="1"/>
<vectornator:setting key="TimeLapseWatermarkDisabled" value="0"/>
<vectornator:setting key="Units" value="Points"/>
<vectornator:setting key="DynamicGuides" value="0"/>
<vectornator:setting key="IsolateActiveLayer" value="0"/>
<vectornator:setting key="SnapToGrid" value="0"/>
</metadata>
<defs/>
<g id="Ceiling Opening" vectornator:layerName="Ceiling Opening">
<g opacity="1">
<path d="M44.4396+0L55.4894+0L55.4894+2.87294L44.4396+2.87294L44.4396+0Z" opacity="1" fill="#000000"/>
<path d="M66.4286+0L77.3679+0L77.3679+2.87294L66.4286+2.87294L66.4286+0Z" opacity="1" fill="#000000"/>
<path d="M4.43951+68.398L7.20195+68.398L7.31245+68.5085L7.31245+80.5527L4.43951+80.5527L4.43951+68.398Z" opacity="1" fill="#000000"/>
<path d="M92.6166+92.818L95.4895+92.818L95.4895+100L88.3072+100L88.3072+97.2379L88.4177+97.1274L92.6166+97.1274L92.6166+92.818Z" opacity="1" fill="#000000"/>
<path d="M44.4396+97.1274L55.4894+97.1274L55.4894+100L44.4396+100L44.4396+97.1274Z" opacity="1" fill="#000000"/>
<path d="M22.4506+97.1274L33.5004+97.1274L33.5004+100L22.4506+100L22.4506+97.1274Z" opacity="1" fill="#000000"/>
<path d="M22.4506+0L33.5004+0L33.5004+2.87294L22.4506+2.87294L22.4506+0Z" opacity="1" fill="#000000"/>
<path d="M88.3072+3.87372e-07L95.4895+3.87372e-07L95.4895+7.18234L92.6166+7.18234L92.6166+2.87294L88.3072+2.87294L88.3072+3.87372e-07Z" opacity="1" fill="#000000"/>
<path d="M4.43951+3.87372e-07L11.5114+3.87372e-07L11.5114+2.87294L7.31245+2.87294L7.31245+7.18234L4.43951+7.18234L4.43951+3.87372e-07Z" opacity="1" fill="#000000"/>
<path d="M92.6166+19.4476L95.4895+19.4476L95.4895+31.7128L92.6166+31.7128L92.6166+19.4476Z" opacity="1" fill="#000000"/>
<path d="M66.4286+97.1274L77.3679+97.1274L77.3679+100L66.4286+100L66.4286+97.1274Z" opacity="1" fill="#000000"/>
<path d="M4.43951+43.8675L7.31245+43.8675L7.31245+56.1328L4.43951+56.1328L4.43951+43.8675Z" opacity="1" fill="#000000"/>
<path d="M92.6166+68.2875L95.4895+68.2875L95.4895+80.5527L92.6166+80.5527L92.6166+68.2875Z" opacity="1" fill="#000000"/>
<path d="M4.43951+92.818L7.31245+92.818L7.31245+97.1274L11.5114+97.1274L11.5114+100L4.43951+100L4.43951+92.818Z" opacity="1" fill="#000000"/>
<path d="M4.43951+19.4476L7.31245+19.4476L7.31245+31.7128L4.43951+31.7128L4.43951+19.4476Z" opacity="1" fill="#000000"/>
<path d="M92.6166+43.8675L95.4895+43.8675L95.4895+56.1328L92.6166+56.1328L92.6166+43.8675Z" opacity="1" fill="#000000"/>
</g>
</g>
</svg>
