<?xml version="1.0" encoding="UTF-8" standalone="no"?> <!-- Created with Vectornator for iOS (http://vectornator.io/) --><!DOCTYPE svg PUBLIC "-//W3C//DTD SVG 1.1//EN" "http://www.w3.org/Graphics/SVG/1.1/DTD/svg11.dtd">
<svg height="100%" style="fill-rule:nonzero;clip-rule:evenodd;stroke-linecap:round;stroke-linejoin:round;" xmlns:xlink="http://www.w3.org/1999/xlink" xmlns="http://www.w3.org/2000/svg" xml:space="preserve" width="100%" xmlns:vectornator="http://vectornator.io" version="1.1" viewBox="0 0 100 100">
<metadata>
<vectornator:setting key="DimensionsVisible" value="1"/>
<vectornator:setting key="PencilOnly" value="0"/>
<vectornator:setting key="SnapToPoints" value="0"/>
<vectornator:setting key="OutlineMode" value="0"/>
<vectornator:setting key="CMYKEnabledKey" value="0"/>
<vectornator:setting key="RulersVisible" value="1"/>
<vectornator:setting key="SnapToEdges" value="0"/>
<vectornator:setting key="GuidesVisible" value="1"/>
<vectornator:setting key="DisplayWhiteBackground" value="0"/>
<vectornator:setting key="doHistoryDisabled" value="0"/>
<vectornator:setting key="SnapToGuides" value="1"/>
<vectornator:setting key="TimeLapseWatermarkDisabled" value="0"/>
<vectornator:setting key="Units" value="Points"/>
<vectornator:setting key="DynamicGuides" value="0"/>
<vectornator:setting key="IsolateActiveLayer" value="0"/>
<vectornator:setting key="SnapToGrid" value="0"/>
</metadata>
<defs/>
<g id="Ceiling Opening" vectornator:layerName="Ceiling Opening">
<g opacity="1">
<path stroke="#ffffff" stroke-width="1" d="M44.4035+0.546892L55.4533+0.546892L55.4533+3.41983L44.4035+3.41983L44.4035+0.546892Z" fill="#000000" stroke-linecap="butt" opacity="1" stroke-linejoin="round"/>
<path stroke="#ffffff" stroke-width="1" d="M66.3926+0.546892L77.3318+0.546892L77.3318+3.41983L66.3926+3.41983L66.3926+0.546892Z" fill="#000000" stroke-linecap="butt" opacity="1" stroke-linejoin="round"/>
<path stroke="#ffffff" stroke-width="1" d="M4.40341+68.9449L7.16585+68.9449L7.27635+69.0554L7.27635+81.0996L4.40341+81.0996L4.40341+68.9449Z" fill="#000000" stroke-linecap="butt" opacity="1" stroke-linejoin="round"/>
<path stroke="#ffffff" stroke-width="1" d="M92.5805+93.3649L95.4534+93.3649L95.4534+100.547L88.2711+100.547L88.2711+97.7848L88.3816+97.6743L92.5805+97.6743L92.5805+93.3649Z" fill="#000000" stroke-linecap="butt" opacity="1" stroke-linejoin="round"/>
<path stroke="#ffffff" stroke-width="1" d="M44.4035+97.6743L55.4533+97.6743L55.4533+100.547L44.4035+100.547L44.4035+97.6743Z" fill="#000000" stroke-linecap="butt" opacity="1" stroke-linejoin="round"/>
<path stroke="#ffffff" stroke-width="1" d="M22.4145+97.6743L33.4643+97.6743L33.4643+100.547L22.4145+100.547L22.4145+97.6743Z" fill="#000000" stroke-linecap="butt" opacity="1" stroke-linejoin="round"/>
<path stroke="#ffffff" stroke-width="1" d="M22.4145+0.546892L33.4643+0.546892L33.4643+3.41983L22.4145+3.41983L22.4145+0.546892Z" fill="#000000" stroke-linecap="butt" opacity="1" stroke-linejoin="round"/>
<path stroke="#ffffff" stroke-width="1" d="M88.2711+0.546893L95.4534+0.546893L95.4534+7.72924L92.5805+7.72924L92.5805+3.41983L88.2711+3.41983L88.2711+0.546893Z" fill="#000000" stroke-linecap="butt" opacity="1" stroke-linejoin="round"/>
<path stroke="#ffffff" stroke-width="1" d="M4.40341+0.546893L11.4753+0.546893L11.4753+3.41983L7.27635+3.41983L7.27635+7.72924L4.40341+7.72924L4.40341+0.546893Z" fill="#000000" stroke-linecap="butt" opacity="1" stroke-linejoin="round"/>
<path stroke="#ffffff" stroke-width="1" d="M92.5805+19.9945L95.4534+19.9945L95.4534+32.2597L92.5805+32.2597L92.5805+19.9945Z" fill="#000000" stroke-linecap="butt" opacity="1" stroke-linejoin="round"/>
<path stroke="#ffffff" stroke-width="1" d="M66.3926+97.6743L77.3318+97.6743L77.3318+100.547L66.3926+100.547L66.3926+97.6743Z" fill="#000000" stroke-linecap="butt" opacity="1" stroke-linejoin="round"/>
<path stroke="#ffffff" stroke-width="1" d="M4.40341+44.4144L7.27635+44.4144L7.27635+56.6797L4.40341+56.6797L4.40341+44.4144Z" fill="#000000" stroke-linecap="butt" opacity="1" stroke-linejoin="round"/>
<path stroke="#ffffff" stroke-width="1" d="M92.5805+68.8344L95.4534+68.8344L95.4534+81.0996L92.5805+81.0996L92.5805+68.8344Z" fill="#000000" stroke-linecap="butt" opacity="1" stroke-linejoin="round"/>
<path stroke="#ffffff" stroke-width="1" d="M4.40341+93.3649L7.27635+93.3649L7.27635+97.6743L11.4753+97.6743L11.4753+100.547L4.40341+100.547L4.40341+93.3649Z" fill="#000000" stroke-linecap="butt" opacity="1" stroke-linejoin="round"/>
<path stroke="#ffffff" stroke-width="1" d="M4.40341+19.9945L7.27635+19.9945L7.27635+32.2597L4.40341+32.2597L4.40341+19.9945Z" fill="#000000" stroke-linecap="butt" opacity="1" stroke-linejoin="round"/>
<path stroke="#ffffff" stroke-width="1" d="M92.5805+44.4144L95.4534+44.4144L95.4534+56.6797L92.5805+56.6797L92.5805+44.4144Z" fill="#000000" stroke-linecap="butt" opacity="1" stroke-linejoin="round"/>
</g>
</g>
</svg>
