<?xml version="1.0" encoding="UTF-8" standalone="no"?> <!-- Created with Vectornator for iOS (http://vectornator.io/) --><!DOCTYPE svg PUBLIC "-//W3C//DTD SVG 1.1//EN" "http://www.w3.org/Graphics/SVG/1.1/DTD/svg11.dtd">
<svg height="100%" style="fill-rule:nonzero;clip-rule:evenodd;stroke-linecap:round;stroke-linejoin:round;" xmlns:xlink="http://www.w3.org/1999/xlink" xmlns="http://www.w3.org/2000/svg" xml:space="preserve" width="100%" xmlns:vectornator="http://vectornator.io" version="1.1" viewBox="0 0 100 100">
<metadata>
<vectornator:setting key="DimensionsVisible" value="1"/>
<vectornator:setting key="PencilOnly" value="0"/>
<vectornator:setting key="SnapToPoints" value="0"/>
<vectornator:setting key="OutlineMode" value="0"/>
<vectornator:setting key="CMYKEnabledKey" value="0"/>
<vectornator:setting key="RulersVisible" value="1"/>
<vectornator:setting key="SnapToEdges" value="0"/>
<vectornator:setting key="GuidesVisible" value="1"/>
<vectornator:setting key="DisplayWhiteBackground" value="0"/>
<vectornator:setting key="doHistoryDisabled" value="0"/>
<vectornator:setting key="SnapToGuides" value="1"/>
<vectornator:setting key="TimeLapseWatermarkDisabled" value="0"/>
<vectornator:setting key="Units" value="Points"/>
<vectornator:setting key="DynamicGuides" value="0"/>
<vectornator:setting key="IsolateActiveLayer" value="0"/>
<vectornator:setting key="SnapToGrid" value="0"/>
</metadata>
<defs/>
<g id="Door Iron Right" vectornator:layerName="Door Iron Right" visibility="hidden">
<path stroke="#ffffff" stroke-width="1" d="M63+27.8616L76.7341+27.8616L76.7341+63.8616L76.7341+99.8616L63+99.8616L63+27.8616ZM67.1618+32.0235L67.1618+95.6998L72.7803+95.6998L72.7803+32.0235L67.1618+32.0235Z" fill="#000000" stroke-linecap="butt" opacity="1" stroke-linejoin="round"/>
</g>
<g id="Door Iron Gate Right" vectornator:layerName="Door Iron Gate Right" visibility="hidden">
<path stroke="#ffffff" stroke-width="1" d="M69.7627+27C76.2424+27+78.4996+35.936+70.9299+38.2547L70.9299+47.7586C76.6035+49.177+76.7151+57.4167+70.9299+58.7632L70.8465+58.8466L70.8465+67.6836L70.9299+67.7669C73.4629+68.6501+75.4969+70.4856+75.3317+73.2942C75.0583+77.9425+71.6671+78.1948+70.9215+78.8048C70.8018+78.9028+70.7708+79.0851+70.7631+79.23C70.7053+80.3281+70.5925+87.3383+70.7965+87.9503C70.836+88.0687+73.2191+89.1327+73.8478+89.9011C76.3176+92.9198+75.6138+96.9471+72.1637+98.8048C71.2985+99.2707+70.4312+99.28+69.4709+99.28C62.9442+99.28+62.1436+89.7004+68.2621+88.2754C68.2621+86.8432+68.4947+79.4+68.1787+78.8132C67.9018+78.2989+63.7669+77.5197+64.0103+72.894C64.2265+68.7875+68.003+68.1231+68.2621+67.6419C68.5658+67.0779+68.3455+60.1646+68.3455+58.7632C62.3213+56.6105+62.9472+49.0337+68.4288+47.7586L68.4288+38.0879C67.6271+37.8875+66.9766+37.4492+66.453+37.0208C62.6679+33.9239+64.6249+27.0834+69.7627+27Z" fill="#000000" stroke-linecap="butt" opacity="1" stroke-linejoin="round"/>
</g>
<g id="Door Locked Iron Bar Right" vectornator:layerName="Door Locked Iron Bar Right" visibility="hidden">
<path stroke="#ffffff" stroke-width="1" d="M91.6498+32.3866L89.9549+32.4863L89.8552+32.586L91.1513+36.7733C94.0377+36.7733+95.9637+40.3981+95.837+42.8049C95.799+43.5267+95.5643+44.2214+95.3385+44.8986C95.128+45.5302+94.7334+46.0936+94.4213+46.6732C91.1562+52.7369+86.6277+58.4736+90.4733+65.6155C91.5142+67.5485+92.5626+69.4093+94.5709+70.4907C95.0575+70.7527+95.5935+70.7721+96.3355+70.9692L96.4352+70.8695L97.4322+66.6823C93.3477+66.6823+91.9558+61.8191+92.7464+58.6567C94.4713+51.7571+102.589+46.6856+97.6116+37.4413C96.5397+35.4505+94.4734+32.4863+91.6498+32.3866Z" fill="#000000" stroke-linecap="butt" opacity="1" stroke-linejoin="round"/>
</g>
<g id="Door Locked Wood Bar Right" vectornator:layerName="Door Locked Wood Bar Right" visibility="hidden">
<path stroke="#ffffff" stroke-width="1" d="M81.7302+32.3866C81.111+32.3866+80.2582+32.2496+79.9656+32.6259C79.8573+32.7651+80.8922+36.093+81.0921+36.4642C81.342+36.9283+82.3649+36.8735+82.8268+37.1222C84.8944+38.2355+86.1553+41.291+85.7579+43.5427C84.7265+49.3872+75.3716+56.0912+80.5538+65.7152C81.612+67.6805+83.5466+70.9692+86.4159+70.9692L87.4129+66.6823C83.4282+66.6823+81.8207+61.4956+82.7571+58.6866C85.3315+50.9632+92.3331+46.1316+87.5624+37.2718C86.583+35.4528+84.2987+32.4863+81.7302+32.3866Z" fill="#000000" stroke-linecap="butt" opacity="1" stroke-linejoin="round"/>
</g>
<g id="Door Locked Iron Bolt Right" vectornator:layerName="Door Locked Iron Bolt Right" visibility="hidden">
<path stroke="#ffffff" stroke-width="1" d="M81+36.6365L86.5691+36.6365L86.5691+64.6807L81+64.6807L81+36.6365Z" fill="#000000" stroke-linecap="butt" opacity="1" stroke-linejoin="round"/>
</g>
<g id="Door Locked Wood Latch Right" vectornator:layerName="Door Locked Wood Latch Right" visibility="hidden">
<path stroke="#ffffff" stroke-width="1" d="M64.1545+27.8519L71.7125+27.8519L71.7125+37.7966C74.7361+37.7966+80.6559+36.5711+80.8617+40.4817C81.0772+44.5765+74.7202+43.3657+71.7125+43.3657L71.7125+99.8519L64.1545+99.8519L64.1545+43.3657C61.131+43.3657+55.2112+44.5912+55.0053+40.6806C54.7898+36.5859+61.1468+37.7966+64.1545+37.7966L64.1545+27.8519Z" fill="#211f1e" stroke-linecap="butt" opacity="1" stroke-linejoin="round"/>
</g>
<g id="Door Wood Right" vectornator:layerName="Door Wood Right">
<path stroke="#ffffff" stroke-width="1" d="M64+27.7125L71.6+27.7125L71.6+99.7125L64.1+99.7125L64+99.6125L64+27.7125Z" fill="#000000" stroke-linecap="butt" opacity="1" stroke-linejoin="round"/>
</g>
<g id="Door Opening Right" vectornator:layerName="Door Opening Right">
<path stroke="#ffffff" stroke-width="1" d="M61.6511+27.9125C54.7129+27.9125+47.0425+30.1987+40.7011+32.3125C35.7426+33.9653+30.1202+36.9696+26.0711+40.2825C23.4388+42.4363+20.5388+44.4886+18.3511+47.1625C17.2126+48.554+16.0197+49.9009+14.8811+51.2925C14.1567+52.1779+13.5956+53.197+12.8711+54.0825C11.2546+56.0583+10.1686+58.5587+8.97114+60.7825C3.78593+70.4122+1.62128+81.8298+1.05114+92.6625C0.936076+94.8487+1.05114+97.0729+1.05114+99.5125L1.15113+99.6125L4.25114+99.5125C4.25114+96.9735+4.12823+94.5977+4.25114+92.2625C4.7862+82.0962+6.91107+71.3083+11.7711+62.2825C13.111+59.7942+14.3576+57.099+16.1711+54.8825C17.3287+53.4677+18.3936+51.9772+19.5511+50.5625C20.2967+49.6513+21.2056+48.8738+21.9511+47.9625C23.6133+45.931+26.6359+43.9659+28.6811+42.2925C31.4284+40.0447+36.636+37.1209+39.9911+36.0025C41.7868+35.4039+43.525+34.6312+45.3211+34.0325C49.8274+32.5304+56.7867+31.1125+61.7511+31.1125L61.8511+31.0125L61.6511+27.9125Z" fill="#000000" stroke-linecap="butt" opacity="1" stroke-linejoin="round"/>
</g>
<g id="Door Locked Right" vectornator:layerName="Door Locked Right">
<path stroke="#ffffff" stroke-width="1" d="M85.8004+34.8887C77.7752+34.8887+76.699+44.7658+83.3937+45.9473C90.6277+47.2239+92.8899+37.1912+85.8004+34.8887Z" fill="#000000" stroke-linecap="butt" opacity="1" stroke-linejoin="round"/>
</g>
</svg>
