<?xml version="1.0" encoding="UTF-8" standalone="no"?> <!-- Created with Vectornator for iOS (http://vectornator.io/) --><!DOCTYPE svg PUBLIC "-//W3C//DTD SVG 1.1//EN" "http://www.w3.org/Graphics/SVG/1.1/DTD/svg11.dtd">
<svg height="100%" style="fill-rule:nonzero;clip-rule:evenodd;stroke-linecap:round;stroke-linejoin:round;" xmlns:xlink="http://www.w3.org/1999/xlink" xmlns="http://www.w3.org/2000/svg" xml:space="preserve" width="100%" xmlns:vectornator="http://vectornator.io" version="1.1" viewBox="0 0 100 100">
<metadata>
<vectornator:setting key="DimensionsVisible" value="1"/>
<vectornator:setting key="PencilOnly" value="0"/>
<vectornator:setting key="SnapToPoints" value="0"/>
<vectornator:setting key="OutlineMode" value="0"/>
<vectornator:setting key="CMYKEnabledKey" value="0"/>
<vectornator:setting key="RulersVisible" value="1"/>
<vectornator:setting key="SnapToEdges" value="0"/>
<vectornator:setting key="GuidesVisible" value="1"/>
<vectornator:setting key="DisplayWhiteBackground" value="0"/>
<vectornator:setting key="doHistoryDisabled" value="0"/>
<vectornator:setting key="SnapToGuides" value="1"/>
<vectornator:setting key="TimeLapseWatermarkDisabled" value="0"/>
<vectornator:setting key="Units" value="Points"/>
<vectornator:setting key="DynamicGuides" value="0"/>
<vectornator:setting key="IsolateActiveLayer" value="0"/>
<vectornator:setting key="SnapToGrid" value="0"/>
</metadata>
<defs/>
<g id="Sloping Surface" vectornator:layerName="Sloping Surface">
<path d="M77.4758+8.98263C78.5031+9.84436+80.2282+10.3794+80.5152+11.4316C80.663+11.9737+71.6581+22.5678+70.5006+23.9826C65.8133+29.7115+41.1493+58.6655+38.9918+62.3354L48.6128+63.6473C46.256+65.9829+36.1636+70.9479+32.8694+72.7217C28.8329+74.8952+22.1561+82.0142+18.2192+83.9826C19.4561+82.4128+20.0007+80.2838+20.7994+78.8004C22.7379+75.2003+25.2308+71.3662+26.5283+67.4739C27.6703+64.0479+30.6167+53.0677+32.2134+50.3092C33.3811+52.9737+34.2236+56.9102+35.7119+59.4928L77.4758+8.98263Z" opacity="1" fill="#030303"/>
</g>
</svg>
