<?xml version="1.0" encoding="UTF-8" standalone="no"?> <!-- Created with Vectornator for iOS (http://vectornator.io/) --><!DOCTYPE svg PUBLIC "-//W3C//DTD SVG 1.1//EN" "http://www.w3.org/Graphics/SVG/1.1/DTD/svg11.dtd">
<svg height="100%" style="fill-rule:nonzero;clip-rule:evenodd;stroke-linecap:round;stroke-linejoin:round;" xmlns:xlink="http://www.w3.org/1999/xlink" xmlns="http://www.w3.org/2000/svg" xml:space="preserve" width="100%" xmlns:vectornator="http://vectornator.io" version="1.1" viewBox="0 0 100 100">
<metadata>
<vectornator:setting key="DimensionsVisible" value="1"/>
<vectornator:setting key="PencilOnly" value="0"/>
<vectornator:setting key="SnapToPoints" value="0"/>
<vectornator:setting key="OutlineMode" value="0"/>
<vectornator:setting key="CMYKEnabledKey" value="0"/>
<vectornator:setting key="RulersVisible" value="1"/>
<vectornator:setting key="SnapToEdges" value="0"/>
<vectornator:setting key="GuidesVisible" value="1"/>
<vectornator:setting key="DisplayWhiteBackground" value="0"/>
<vectornator:setting key="doHistoryDisabled" value="0"/>
<vectornator:setting key="SnapToGuides" value="1"/>
<vectornator:setting key="TimeLapseWatermarkDisabled" value="0"/>
<vectornator:setting key="Units" value="Points"/>
<vectornator:setting key="DynamicGuides" value="0"/>
<vectornator:setting key="IsolateActiveLayer" value="0"/>
<vectornator:setting key="SnapToGrid" value="0"/>
</metadata>
<defs/>
<g id="Water Depth/Stair Direction" vectornator:layerName="Water Depth/Stair Direction">
<g opacity="1">
<path d="M72.8702+0L72.9857+0L73.1012+0L73.1012+0.115475L73.1012+0.230948L73.1012+0.346423L72.9857+0.346423L72.9857+0.461895L72.8702+0.461895L72.8702+0.577367L72.7548+0.577367L72.7548+0.692843L72.7548+0.808315L72.6393+0.808315L72.6393+0.92379L72.5238+0.92379L72.5238+1.03926L72.5238+1.15473L72.4083+1.15473L72.4083+1.27021L72.4083+1.38568L72.2929+1.38568L72.2929+1.50116L72.1774+1.50116L72.1774+1.61663L72.1774+1.7321L72.0619+1.7321L72.0619+1.84758L71.9464+1.84758L71.9464+1.96305L71.9464+2.07853L71.831+2.07853L71.831+2.194L71.7155+2.194L71.7155+2.30947L71.7155+2.42494L71.6+2.42494L71.6+2.54042L71.4845+2.54042L71.4845+2.65589L71.4845+2.77136L71.3691+2.77136L71.3691+2.88684L71.2536+2.88684L71.2536+3.00231L71.2536+3.11778L71.1381+3.11778L71.1381+3.23326L71.1381+3.34873L71.0226+3.34873L71.0226+3.4642L70.9072+3.4642L70.9072+3.57968L70.9072+3.69515L70.7917+3.69515L70.7917+3.81062L70.6762+3.81062L70.6762+3.9261L70.6762+4.04157L70.5608+4.04157L70.5608+4.15705L70.4453+4.15705L70.4453+4.27252L70.4453+4.38799L70.3298+4.38799L70.3298+4.50347L70.2143+4.50347L70.2143+4.61894L70.2143+4.73441L70.0989+4.73441L70.0989+4.84989L70.0989+4.96536L69.9834+4.96536L69.9834+5.08083L69.8679+5.08083L69.8679+5.19631L69.8679+5.31178L69.7524+5.31178L69.7524+5.42725L69.637+5.42725L69.637+5.54273L69.637+5.6582L69.5215+5.6582L69.5215+5.77367L69.406+5.77367L69.406+5.88915L69.406+6.00462L69.2905+6.00462L69.2905+6.12009L69.1751+6.12009L69.1751+6.23557L69.1751+6.35104L69.0596+6.35104L69.0596+6.46651L68.9441+6.46651L68.9441+6.58199L68.9441+6.69746L68.8287+6.69746L68.8287+6.81294L68.8287+6.92841L68.7132+6.92841L68.7132+7.04388L68.5977+7.04388L68.5977+7.15936L68.5977+7.27483L68.4822+7.27483L68.4822+7.3903L68.3668+7.3903L68.3668+7.50578L68.3668+7.62125L68.2513+7.62125L68.2513+7.73672L68.1358+7.73672L68.1358+7.8522L68.1358+7.96767L68.0203+7.96767L68.0203+8.08314L67.9049+8.08314L67.9049+8.19861L67.9049+8.31409L67.7894+8.31409L67.7894+8.42956L67.6739+8.42956L67.6739+8.54503L67.6739+8.66051L67.5584+8.66051L67.5584+8.77598L67.5584+8.89146L67.443+8.89146L67.443+9.00693L67.3275+9.00693L67.3275+9.1224L67.3275+9.23788L67.212+9.23788L67.212+9.35335L67.0966+9.35335L67.0966+9.46882L67.0966+9.5843L66.9811+9.5843L66.9811+9.69977L66.8656+9.69977L66.8656+9.81524L66.8656+9.93072L66.7501+9.93072L66.7501+10.0462L66.6347+10.0462L66.6347+10.1617L66.6347+10.2771L66.5192+10.2771L66.5192+10.3926L66.4037+10.3926L66.4037+10.5081L66.4037+10.6236L66.2882+10.6236L66.2882+10.739L66.2882+10.8545L66.1728+10.8545L66.1728+10.97L66.0573+10.97L66.0573+11.0855L66.0573+11.2009L65.9418+11.2009L65.9418+11.3164L65.8263+11.3164L65.8263+11.4319L65.8263+11.5473L65.7109+11.5473L65.7109+11.6628L65.5954+11.6628L65.5954+11.7783L65.5954+11.8938L65.4799+11.8938L65.4799+12.0092L65.3645+12.0092L65.3645+12.1247L65.3645+12.2402L65.249+12.2402L65.249+12.3557L65.249+12.4711L65.1335+12.4711L65.1335+12.5866L65.018+12.5866L65.018+12.7021L65.018+12.8176L64.9026+12.8176L64.9026+12.933L64.7871+12.933L64.7871+13.0485L64.7871+13.164L64.6716+13.164L64.6716+13.2794L64.5561+13.2794L64.5561+13.3949L64.5561+13.5104L64.4407+13.5104L64.4407+13.6259L64.3252+13.6259L64.3252+13.7413L64.3252+13.8568L64.2097+13.8568L64.2097+13.9723L64.0942+13.9723L64.0942+14.0878L64.0942+14.2032L63.9788+14.2032L63.9788+14.3187L63.9788+14.4342L63.8633+14.4342L63.8633+14.5497L63.7478+14.5497L63.7478+14.6651L63.7478+14.7806L63.6323+14.7806L63.6323+14.8961L63.5169+14.8961L63.5169+15.0115L63.5169+15.127L63.4014+15.127L63.4014+15.2425L63.2859+15.2425L63.2859+15.358L63.2859+15.4734L63.1705+15.4734L63.1705+15.5889L63.055+15.5889L63.055+15.7044L63.055+15.8199L62.9395+15.8199L62.9395+15.9353L62.824+15.9353L62.824+16.0508L62.824+16.1663L62.7086+16.1663L62.7086+16.2818L62.7086+16.3972L62.5931+16.3972L62.5931+16.5127L62.4776+16.5127L62.4776+16.6282L62.4776+16.7436L62.3621+16.7436L62.3621+16.8591L62.2467+16.8591L62.2467+16.9746L62.2467+17.0901L62.1312+17.0901L62.1312+17.2055L62.0157+17.2055L62.0157+17.321L62.0157+17.4365L61.9002+17.4365L61.9002+17.552L61.7848+17.552L61.7848+17.6674L61.7848+17.7829L61.6693+17.7829L61.6693+17.8984L61.5538+17.8984L61.5538+18.0139L61.5538+18.1293L61.4384+18.1293L61.4384+18.2448L61.4384+18.3603L61.3229+18.3603L61.3229+18.4758L61.2074+18.4758L61.2074+18.5912L61.2074+18.7067L61.0919+18.7067L61.0919+18.8222L60.9765+18.8222L60.9765+18.9376L60.9765+19.0531L60.861+19.0531L60.861+19.1686L60.7455+19.1686L60.7455+19.2841L60.7455+19.3995L60.63+19.3995L60.63+19.515L60.5146+19.515L60.5146+19.6305L60.5146+19.746L60.3991+19.746L60.3991+19.8614L60.3991+19.9769L60.2836+19.9769L60.2836+20.0924L60.1681+20.0924L60.1681+20.2079L60.1681+20.3233L60.0527+20.3233L60.0527+20.4388L59.9372+20.4388L59.9372+20.5543L59.9372+20.6697L59.8217+20.6697L59.8217+20.7852L59.7063+20.7852L59.7063+20.9007L59.7063+21.0162L59.5908+21.0162L59.5908+21.1316L59.4753+21.1316L59.4753+21.2471L59.4753+21.3626L59.3598+21.3626L59.3598+21.4781L59.2444+21.4781L59.2444+21.5935L59.2444+21.709L59.1289+21.709L59.1289+21.8245L59.1289+21.94L59.0134+21.94L59.0134+22.0554L58.8979+22.0554L58.8979+22.1709L58.8979+22.2864L58.7825+22.2864L58.7825+22.4018L58.667+22.4018L58.667+22.5173L58.667+22.6328L58.5515+22.6328L58.5515+22.7483L58.436+22.7483L58.436+22.8637L58.436+22.9792L58.3206+22.9792L58.3206+23.0947L58.2051+23.0947L58.2051+23.2102L58.2051+23.3256L58.0896+23.3256L58.0896+23.4411L57.9742+23.4411L57.9742+23.5566L57.9742+23.6721L57.8587+23.6721L57.8587+23.7875L57.8587+23.903L57.7432+23.903L57.7432+24.0185L57.6277+24.0185L57.6277+24.1339L57.6277+24.2494L57.5123+24.2494L57.5123+24.3649L57.3968+24.3649L57.3968+24.4804L57.3968+24.5958L57.2813+24.5958L57.2813+24.7113L57.1658+24.7113L57.1658+24.8268L57.1658+24.9423L57.0504+24.9423L57.0504+25.0577L56.9349+25.0577L56.9349+25.1732L56.9349+25.2887L56.8194+25.2887L56.8194+25.4042L56.7039+25.4042L56.7039+25.5196L56.7039+25.6351L56.5885+25.6351L56.5885+25.7506L56.5885+25.8661L56.473+25.8661L56.473+25.9815L56.3575+25.9815L56.3575+26.097L56.3575+26.2125L56.242+26.2125L56.242+26.3279L56.1266+26.3279L56.1266+26.4434L56.1266+26.5589L56.0111+26.5589L56.0111+26.6744L55.8956+26.6744L55.8956+26.7898L55.8956+26.9053L55.7802+26.9053L55.7802+27.0208L55.6647+27.0208L55.6647+27.1363L55.6647+27.2517L55.5492+27.2517L55.5492+27.3672L55.5492+27.4827L55.4337+27.4827L55.4337+27.5982L55.3183+27.5982L55.3183+27.7136L55.3183+27.8291L55.2028+27.8291L55.2028+27.9446L55.0873+27.9446L55.0873+28.06L55.0873+28.1755L54.9718+28.1755L54.9718+28.291L54.8564+28.291L54.8564+28.4065L54.8564+28.5219L54.7409+28.5219L54.7409+28.6374L54.6254+28.6374L54.6254+28.7529L54.6254+28.8684L54.5099+28.8684L54.5099+28.9838L54.3945+28.9838L54.3945+29.0993L54.3945+29.2148L54.279+29.2148L54.279+29.3303L54.279+29.4457L54.1635+29.4457L54.1635+29.5612L54.0481+29.5612L54.0481+29.6767L54.0481+29.7921L53.9326+29.7921L53.9326+29.9076L53.8171+29.9076L53.8171+30.0231L53.8171+30.1386L53.7016+30.1386L53.7016+30.254L53.5862+30.254L53.5862+30.3695L53.5862+30.485L53.4707+30.485L53.4707+30.6005L53.3552+30.6005L53.3552+30.7159L53.3552+30.8314L53.2397+30.8314L53.2397+30.9469L53.2397+31.0624L53.1243+31.0624L53.1243+31.1778L53.0088+31.1778L53.0088+31.2933L53.0088+31.4088L52.8933+31.4088L52.8933+31.5243L52.7778+31.5243L52.7778+31.6397L52.7778+31.7552L52.6624+31.7552L52.6624+31.8707L52.5469+31.8707L52.5469+31.9861L52.5469+32.1016L52.4314+32.1016L52.4314+32.2171L52.316+32.2171L52.316+32.3326L52.316+32.448L52.2005+32.448L52.2005+32.5635L52.085+32.5635L52.085+32.679L52.085+32.7945L51.9695+32.7945L51.9695+32.9099L51.9695+33.0254L51.8541+33.0254L51.8541+33.1409L51.7386+33.1409L51.7386+33.2564L51.7386+33.3718L51.6231+33.3718L51.6231+33.4873L51.5076+33.4873L51.5076+33.6028L51.5076+33.7182L51.3922+33.7182L51.3922+33.8337L51.2767+33.8337L51.2767+33.9492L51.2767+34.0647L51.1612+34.0647L51.1612+34.1801L51.0457+34.1801L51.0457+34.2956L51.0457+34.4111L50.9303+34.4111L50.9303+34.5266L50.9303+34.642L50.8148+34.642L50.8148+34.7575L50.6993+34.7575L50.6993+34.873L50.6993+34.9885L50.5839+34.9885L50.5839+35.1039L50.4684+35.1039L50.4684+35.2194L50.4684+35.3349L50.3529+35.3349L50.3529+35.4503L50.2374+35.4503L50.2374+35.5658L50.2374+35.6813L50.122+35.6813L50.122+35.7968L50.0065+35.7968L50.0065+35.9122L50.0065+36.0277L49.891+36.0277L49.891+36.1432L49.7755+36.1432L49.7755+36.2587L49.7755+36.3741L49.6601+36.3741L49.6601+36.4896L49.6601+36.6051L49.5446+36.6051L49.5446+36.7206L49.4291+36.7206L49.4291+36.836L49.4291+36.9515L49.3136+36.9515L49.3136+37.067L49.1982+37.067L49.1982+37.1824L49.1982+37.2979L49.0827+37.2979L49.0827+37.4134L48.9672+37.4134L48.9672+37.5289L48.9672+37.6443L48.8517+37.6443L48.8517+37.7598L48.7363+37.7598L48.7363+37.8753L48.7363+37.9908L48.6208+37.9908L48.6208+38.1062L48.6208+38.2217L48.5053+38.2217L48.3899+38.2217L48.3899+38.1062L48.2744+38.1062L48.2744+37.9908L48.2744+37.8753L48.1589+37.8753L48.1589+37.7598L48.0434+37.7598L48.0434+37.6443L48.0434+37.5289L47.928+37.5289L47.928+37.4134L47.8125+37.4134L47.8125+37.2979L47.8125+37.1824L47.697+37.1824L47.697+37.067L47.5815+37.067L47.5815+36.9515L47.5815+36.836L47.4661+36.836L47.4661+36.7206L47.3506+36.7206L47.3506+36.6051L47.3506+36.4896L47.2351+36.4896L47.2351+36.3741L47.1196+36.3741L47.1196+36.2587L47.1196+36.1432L47.0042+36.1432L47.0042+36.0277L46.8887+36.0277L46.8887+35.9122L46.8887+35.7968L46.7732+35.7968L46.7732+35.6813L46.6578+35.6813L46.6578+35.5658L46.6578+35.4503L46.5423+35.4503L46.5423+35.3349L46.4268+35.3349L46.4268+35.2194L46.4268+35.1039L46.3113+35.1039L46.3113+34.9885L46.1959+34.9885L46.1959+34.873L46.1959+34.7575L46.0804+34.7575L46.0804+34.642L45.9649+34.642L45.9649+34.5266L45.9649+34.4111L45.8494+34.4111L45.8494+34.2956L45.734+34.2956L45.734+34.1801L45.734+34.0647L45.6185+34.0647L45.6185+33.9492L45.503+33.9492L45.503+33.8337L45.503+33.7182L45.3875+33.7182L45.3875+33.6028L45.2721+33.6028L45.2721+33.4873L45.2721+33.3718L45.1566+33.3718L45.1566+33.2564L45.0411+33.2564L45.0411+33.1409L45.0411+33.0254L44.9257+33.0254L44.9257+32.9099L44.8102+32.9099L44.8102+32.7945L44.8102+32.679L44.6947+32.679L44.6947+32.5635L44.5792+32.5635L44.5792+32.448L44.5792+32.3326L44.4638+32.3326L44.4638+32.2171L44.3483+32.2171L44.3483+32.1016L44.3483+31.9861L44.2328+31.9861L44.2328+31.8707L44.1173+31.8707L44.1173+31.7552L44.1173+31.6397L44.0019+31.6397L44.0019+31.5243L43.8864+31.5243L43.8864+31.4088L43.8864+31.2933L43.7709+31.2933L43.7709+31.1778L43.6554+31.1778L43.6554+31.0624L43.6554+30.9469L43.54+30.9469L43.54+30.8314L43.4245+30.8314L43.4245+30.7159L43.4245+30.6005L43.309+30.6005L43.309+30.485L43.1936+30.485L43.1936+30.3695L43.1936+30.254L43.0781+30.254L43.0781+30.1386L43.0781+30.0231L42.9626+30.0231L42.9626+29.9076L42.8471+29.9076L42.8471+29.7921L42.8471+29.6767L42.7317+29.6767L42.7317+29.5612L42.6162+29.5612L42.6162+29.4457L42.6162+29.3303L42.5007+29.3303L42.5007+29.2148L42.3852+29.2148L42.3852+29.0993L42.3852+28.9838L42.2698+28.9838L42.2698+28.8684L42.1543+28.8684L42.1543+28.7529L42.1543+28.6374L42.0388+28.6374L42.0388+28.5219L41.9233+28.5219L41.9233+28.4065L41.9233+28.291L41.8079+28.291L41.8079+28.1755L41.6924+28.1755L41.6924+28.06L41.6924+27.9446L41.5769+27.9446L41.5769+27.8291L41.4614+27.8291L41.4614+27.7136L41.4614+27.5982L41.346+27.5982L41.346+27.4827L41.2305+27.4827L41.2305+27.3672L41.2305+27.2517L41.115+27.2517L41.115+27.1363L40.9996+27.1363L40.9996+27.0208L40.9996+26.9053L40.8841+26.9053L40.8841+26.7898L40.7686+26.7898L40.7686+26.6744L40.7686+26.5589L40.6531+26.5589L40.6531+26.4434L40.5377+26.4434L40.5377+26.3279L40.5377+26.2125L40.4222+26.2125L40.4222+26.097L40.3067+26.097L40.3067+25.9815L40.3067+25.8661L40.1912+25.8661L40.1912+25.7506L40.0758+25.7506L40.0758+25.6351L40.0758+25.5196L39.9603+25.5196L39.9603+25.4042L39.8448+25.4042L39.8448+25.2887L39.8448+25.1732L39.7293+25.1732L39.7293+25.0577L39.6139+25.0577L39.6139+24.9423L39.6139+24.8268L39.4984+24.8268L39.4984+24.7113L39.3829+24.7113L39.3829+24.5958L39.3829+24.4804L39.2675+24.4804L39.2675+24.3649L39.152+24.3649L39.152+24.2494L39.152+24.1339L39.0365+24.1339L39.0365+24.0185L38.921+24.0185L38.921+23.903L38.921+23.7875L38.8056+23.7875L38.8056+23.6721L38.6901+23.6721L38.6901+23.5566L38.6901+23.4411L38.5746+23.4411L38.5746+23.3256L38.4591+23.3256L38.4591+23.2102L38.4591+23.0947L38.3437+23.0947L38.3437+22.9792L38.2282+22.9792L38.2282+22.8637L38.2282+22.7483L38.1127+22.7483L38.1127+22.6328L37.9972+22.6328L37.9972+22.5173L37.9972+22.4018L37.8818+22.4018L37.8818+22.2864L37.7663+22.2864L37.7663+22.1709L37.7663+22.0554L37.6508+22.0554L37.6508+21.94L37.5354+21.94L37.5354+21.8245L37.5354+21.709L37.4199+21.709L37.4199+21.5935L37.3044+21.5935L37.3044+21.4781L37.3044+21.3626L37.1889+21.3626L37.1889+21.2471L37.0735+21.2471L37.0735+21.1316L37.0735+21.0162L36.958+21.0162L36.958+20.9007L36.8425+20.9007L36.8425+20.7852L36.8425+20.6697L36.727+20.6697L36.727+20.5543L36.6116+20.5543L36.6116+20.4388L36.6116+20.3233L36.4961+20.3233L36.4961+20.2079L36.3806+20.2079L36.3806+20.0924L36.3806+19.9769L36.2651+19.9769L36.2651+19.8614L36.1497+19.8614L36.1497+19.746L36.1497+19.6305L36.0342+19.6305L36.0342+19.515L35.9187+19.515L35.9187+19.3995L35.9187+19.2841L35.8033+19.2841L35.8033+19.1686L35.6878+19.1686L35.6878+19.0531L35.6878+18.9376L35.5723+18.9376L35.5723+18.8222L35.4568+18.8222L35.4568+18.7067L35.4568+18.5912L35.3414+18.5912L35.3414+18.4758L35.2259+18.4758L35.2259+18.3603L35.2259+18.2448L35.1104+18.2448L35.1104+18.1293L34.9949+18.1293L34.9949+18.0139L34.9949+17.8984L34.8795+17.8984L34.8795+17.7829L34.764+17.7829L34.764+17.6674L34.764+17.552L34.6485+17.552L34.6485+17.4365L34.533+17.4365L34.533+17.321L34.533+17.2055L34.4176+17.2055L34.4176+17.0901L34.3021+17.0901L34.3021+16.9746L34.3021+16.8591L34.1866+16.8591L34.1866+16.7436L34.0711+16.7436L34.0711+16.6282L34.0711+16.5127L33.9557+16.5127L33.9557+16.3972L33.8402+16.3972L33.8402+16.2818L33.8402+16.1663L33.7247+16.1663L33.7247+16.0508L33.6093+16.0508L33.6093+15.9353L33.6093+15.8199L33.4938+15.8199L33.4938+15.7044L33.3783+15.7044L33.3783+15.5889L33.3783+15.4734L33.2628+15.4734L33.2628+15.358L33.1474+15.358L33.1474+15.2425L33.1474+15.127L33.0319+15.127L33.0319+15.0115L32.9164+15.0115L32.9164+14.8961L32.9164+14.7806L32.8009+14.7806L32.8009+14.6651L32.6855+14.6651L32.6855+14.5497L32.6855+14.4342L32.57+14.4342L32.57+14.3187L32.4545+14.3187L32.4545+14.2032L32.4545+14.0878L32.339+14.0878L32.339+13.9723L32.2236+13.9723L32.2236+13.8568L32.2236+13.7413L32.1081+13.7413L32.1081+13.6259L31.9926+13.6259L31.9926+13.5104L31.9926+13.3949L31.8772+13.3949L31.8772+13.2794L31.7617+13.2794L31.7617+13.164L31.7617+13.0485L31.6462+13.0485L31.6462+12.933L31.5307+12.933L31.5307+12.8176L31.5307+12.7021L31.4153+12.7021L31.4153+12.5866L31.2998+12.5866L31.2998+12.4711L31.2998+12.3557L31.1843+12.3557L31.1843+12.2402L31.0688+12.2402L31.0688+12.1247L31.0688+12.0092L30.9534+12.0092L30.9534+11.8938L30.8379+11.8938L30.8379+11.7783L30.8379+11.6628L30.7224+11.6628L30.7224+11.5473L30.6069+11.5473L30.6069+11.4319L30.6069+11.3164L30.4915+11.3164L30.4915+11.2009L30.376+11.2009L30.376+11.0855L30.376+10.97L30.2605+10.97L30.2605+10.8545L30.1451+10.8545L30.1451+10.739L30.1451+10.6236L30.0296+10.6236L30.0296+10.5081L29.9141+10.5081L29.9141+10.3926L29.9141+10.2771L29.7986+10.2771L29.7986+10.1617L29.6832+10.1617L29.6832+10.0462L29.6832+9.93072L29.5677+9.93072L29.5677+9.81524L29.4522+9.81524L29.4522+9.69977L29.4522+9.5843L29.3367+9.5843L29.3367+9.46882L29.2213+9.46882L29.2213+9.35335L29.2213+9.23788L29.1058+9.23788L29.1058+9.1224L28.9903+9.1224L28.9903+9.00693L28.9903+8.89146L28.8748+8.89146L28.8748+8.77598L28.7594+8.77598L28.7594+8.66051L28.7594+8.54503L28.6439+8.54503L28.6439+8.42956L28.5284+8.42956L28.5284+8.31409L28.5284+8.19861L28.413+8.19861L28.413+8.08314L28.2975+8.08314L28.2975+7.96767L28.2975+7.8522L28.182+7.8522L28.182+7.73672L28.0665+7.73672L28.0665+7.62125L28.0665+7.50578L27.9511+7.50578L27.9511+7.3903L27.8356+7.3903L27.8356+7.27483L27.8356+7.15936L27.7201+7.15936L27.7201+7.04388L27.6046+7.04388L27.6046+6.92841L27.6046+6.81294L27.4892+6.81294L27.4892+6.69746L27.3737+6.69746L27.3737+6.58199L27.3737+6.46651L27.2582+6.46651L27.2582+6.35104L27.1427+6.35104L27.1427+6.23557L27.1427+6.12009L27.0273+6.12009L27.0273+6.00462L26.9118+6.00462L26.9118+5.88915L26.9118+5.77367L26.7963+5.77367L26.7963+5.6582L26.6808+5.6582L26.6808+5.54273L26.6808+5.42725L26.5654+5.42725L26.5654+5.31178L26.4499+5.31178L26.4499+5.19631L26.4499+5.08083L26.3344+5.08083L26.3344+4.96536L26.219+4.96536L26.219+4.84989L26.219+4.73441L26.1035+4.73441L26.1035+4.61894L25.988+4.61894L25.988+4.50347L25.988+4.38799L25.8725+4.38799L25.8725+4.27252L25.7571+4.27252L25.7571+4.15705L25.7571+4.04157L25.6416+4.04157L25.6416+3.9261L25.5261+3.9261L25.5261+3.81062L25.5261+3.69515L25.4106+3.69515L25.4106+3.57968L25.2952+3.57968L25.2952+3.4642L25.2952+3.34873L25.1797+3.34873L25.1797+3.23326L25.1797+3.11778L25.0642+3.11778L25.0642+3.00231L24.9487+3.00231L24.9487+2.88684L24.9487+2.77136L24.8333+2.77136L24.8333+2.65589L24.7178+2.65589L24.7178+2.54042L24.7178+2.42494L24.6023+2.42494L24.6023+2.30947L24.4869+2.30947L24.4869+2.194L24.4869+2.07853L24.3714+2.07853L24.3714+1.96305L24.2559+1.96305L24.2559+1.84758L24.2559+1.7321L24.1404+1.7321L24.1404+1.61663L24.025+1.61663L24.025+1.50116L24.025+1.38568L23.9095+1.38568L23.9095+1.27021L23.794+1.27021L23.794+1.15473L23.794+1.03926L23.6785+1.03926L23.6785+0.92379L23.5631+0.92379L23.5631+0.808315L23.4476+0.808315L23.4476+0.692843L23.4476+0.577367L23.3321+0.577367L23.3321+0.461895L23.2166+0.461895L23.2166+0.346423L23.2166+0.230948L72.8702+0Z" opacity="1" fill="#030303"/>
<path d="M23.1012+3.14074e-06L23.4476+3.14074e-06L72.8702+3.14074e-06L23.2166+0.23095L23.1012+3.14074e-06Z" opacity="1" fill="#7f7878"/>
</g>
</g>
</svg>
