<?xml version="1.0" encoding="UTF-8" standalone="no"?> <!-- Created with Vectornator for iOS (http://vectornator.io/) --><!DOCTYPE svg PUBLIC "-//W3C//DTD SVG 1.1//EN" "http://www.w3.org/Graphics/SVG/1.1/DTD/svg11.dtd">
<svg height="100%" style="fill-rule:nonzero;clip-rule:evenodd;stroke-linecap:round;stroke-linejoin:round;" xmlns:xlink="http://www.w3.org/1999/xlink" xmlns="http://www.w3.org/2000/svg" xml:space="preserve" width="100%" xmlns:vectornator="http://vectornator.io" version="1.1" viewBox="0 0 100 100">
<metadata>
<vectornator:setting key="DimensionsVisible" value="1"/>
<vectornator:setting key="PencilOnly" value="0"/>
<vectornator:setting key="SnapToPoints" value="0"/>
<vectornator:setting key="OutlineMode" value="0"/>
<vectornator:setting key="CMYKEnabledKey" value="0"/>
<vectornator:setting key="RulersVisible" value="1"/>
<vectornator:setting key="SnapToEdges" value="0"/>
<vectornator:setting key="GuidesVisible" value="1"/>
<vectornator:setting key="DisplayWhiteBackground" value="0"/>
<vectornator:setting key="doHistoryDisabled" value="0"/>
<vectornator:setting key="SnapToGuides" value="1"/>
<vectornator:setting key="TimeLapseWatermarkDisabled" value="0"/>
<vectornator:setting key="Units" value="Points"/>
<vectornator:setting key="DynamicGuides" value="0"/>
<vectornator:setting key="IsolateActiveLayer" value="0"/>
<vectornator:setting key="SnapToGrid" value="0"/>
</metadata>
<defs/>
<g id="Door Iron Left" vectornator:layerName="Door Iron Left">
<path stroke="#000000" stroke-width="1" d="M23.5769+27.8616L37.311+27.8616L37.311+63.8616L37.311+99.8616L23.5769+99.8616L23.5769+27.8616ZM27.7387+32.0235L27.7387+95.6998L33.3572+95.6998L33.3572+32.0235L27.7387+32.0235Z" fill="#ffffff" stroke-linecap="butt" opacity="1" stroke-linejoin="round"/>
</g>
<g id="Door Iron Gate Left" vectornator:layerName="Door Iron Gate Left" visibility="hidden">
<path stroke="#000000" stroke-width="1" d="M29.7627+28C36.2424+28+38.4996+36.936+30.9299+39.2547L30.9299+48.7586C36.6035+50.177+36.7151+58.4167+30.9299+59.7632L30.8465+59.8466L30.8465+68.6836L30.9299+68.7669C33.4629+69.6501+35.4969+71.4856+35.3317+74.2942C35.0583+78.9425+31.6671+79.1948+30.9215+79.8048C30.8018+79.9028+30.7708+80.0851+30.7631+80.23C30.7053+81.3281+30.5925+88.3383+30.7965+88.9503C30.836+89.0687+33.2191+90.1327+33.8478+90.9011C36.3176+93.9198+35.6138+97.9471+32.1637+99.8048C31.2985+100.271+30.4312+100.28+29.4709+100.28C22.9442+100.28+22.1436+90.7004+28.2621+89.2754C28.2621+87.8432+28.4947+80.4+28.1787+79.8132C27.9018+79.2989+23.7669+78.5197+24.0103+73.894C24.2265+69.7875+28.003+69.1231+28.2621+68.6419C28.5658+68.0779+28.3455+61.1646+28.3455+59.7632C22.3213+57.6105+22.9472+50.0337+28.4288+48.7586L28.4288+39.0879C27.6271+38.8875+26.9766+38.4492+26.453+38.0208C22.6679+34.9239+24.6249+28.0834+29.7627+28Z" fill="#ffffff" stroke-linecap="butt" opacity="1" stroke-linejoin="round"/>
</g>
<g id="Door Locked Iron Bar Left" vectornator:layerName="Door Locked Iron Bar Left" visibility="hidden">
<path stroke="#000000" stroke-width="1" d="M8.55533+32.3866L10.2502+32.4863L10.3499+32.586L9.05381+36.7733C6.16742+36.7733+4.2414+40.3981+4.36807+42.8049C4.40606+43.5267+4.64083+44.2214+4.86655+44.8986C5.07708+45.5302+5.47171+46.0936+5.78376+46.6732C9.04884+52.7369+13.5774+58.4736+9.73175+65.6155C8.69093+67.5485+7.64252+69.4093+5.63422+70.4907C5.14755+70.7527+4.61153+70.7721+3.86959+70.9692L3.76989+70.8695L2.77293+66.6823C6.85743+66.6823+8.24927+61.8191+7.45867+58.6567C5.73376+51.7571-2.38424+46.6856+2.59347+37.4413C3.66543+35.4505+5.73171+32.4863+8.55533+32.3866Z" fill="#ffffff" stroke-linecap="butt" opacity="1" stroke-linejoin="round"/>
</g>
<g id="Door Locked Iron Bolt Left" vectornator:layerName="Door Locked Iron Bolt Left">
<path stroke="#000000" stroke-width="1" d="M12.8979+36.6365L18.467+36.6365L18.467+64.6807L12.8979+64.6807L12.8979+36.6365Z" fill="#ffffff" stroke-linecap="butt" opacity="1" stroke-linejoin="round"/>
</g>
<g id="Door Locked Wood Bar Left" vectornator:layerName="Door Locked Wood Bar Left" visibility="hidden">
<path stroke="#000000" stroke-width="1" d="M18.8245+32.3492L21.0063+32.5476L19.8162+36.7129C16.7468+36.7129+14.741+41.0446+15.1352+43.2782C16.4147+50.5286+24.4413+53.879+21.0063+64.184C20.4308+65.9104+19.2824+67.1837+18.2294+69.0435C17.2296+69.9028+16.0964+70.491+14.6592+70.8286L14.4608+70.6302L13.4691+66.4649C17.9662+66.4649+19.032+60.9983+17.9914+57.8765C15.438+50.2163+8.17867+45.0452+13.9848+36.336C14.9981+34.8161+16.4853+32.9705+18.8245+32.3492Z" fill="#ffffff" stroke-linecap="butt" opacity="1" stroke-linejoin="round"/>
</g>
<g id="Door Locked Wood Latch Left" vectornator:layerName="Door Locked Wood Latch Left" visibility="hidden">
<path stroke="#000000" stroke-width="1" d="M27.8413+27.8519L35.3993+27.8519L35.3993+37.7966C38.4229+37.7966+44.3427+36.5711+44.5485+40.4817C44.764+44.5765+38.407+43.3657+35.3993+43.3657L35.3993+99.8519L27.8413+99.8519L27.8413+43.3657C24.8178+43.3657+18.898+44.5912+18.6921+40.6806C18.4766+36.5859+24.8336+37.7966+27.8413+37.7966L27.8413+27.8519Z" fill="#ffffff" stroke-linecap="butt" opacity="1" stroke-linejoin="round"/>
</g>
<g id="Door Wood Left" vectornator:layerName="Door Wood Left" visibility="hidden">
<path stroke="#000000" stroke-width="1" d="M28.0042+27.7125L35.6042+27.7125L35.6042+99.7125L28.1042+99.7125L28.0042+99.6125L28.0042+27.7125Z" fill="#ffffff" stroke-linecap="butt" opacity="1" stroke-linejoin="round"/>
</g>
<g id="Door Opening Left" vectornator:layerName="Door Opening Left">
<path stroke="#000000" stroke-width="1" d="M39.0042+27.9125C45.9425+27.9125+53.6129+30.1987+59.9542+32.3125C64.9128+33.9653+70.5352+36.9696+74.5842+40.2825C77.2166+42.4363+80.1165+44.4886+82.3042+47.1625C83.4427+48.554+84.6357+49.9009+85.7742+51.2925C86.4987+52.1779+87.0598+53.197+87.7842+54.0825C89.4008+56.0583+90.4868+58.5587+91.6842+60.7825C96.8695+70.4122+99.0341+81.8298+99.6042+92.6625C99.7193+94.8487+99.6042+97.0729+99.6042+99.5125L99.5042+99.6125L96.4042+99.5125C96.4042+96.9735+96.5272+94.5977+96.4042+92.2625C95.8692+82.0962+93.7443+71.3083+88.8842+62.2825C87.5444+59.7942+86.2977+57.099+84.4842+54.8825C83.3267+53.4677+82.2617+51.9772+81.1042+50.5625C80.3587+49.6513+79.4498+48.8738+78.7042+47.9625C77.0421+45.931+74.0195+43.9659+71.9742+42.2925C69.227+40.0447+64.0194+37.1209+60.6642+36.0025C58.8686+35.4039+57.1304+34.6312+55.3342+34.0325C50.8279+32.5304+43.8687+31.1125+38.9042+31.1125L38.8042+31.0125L39.0042+27.9125Z" fill="#ffffff" stroke-linecap="butt" opacity="1" stroke-linejoin="round"/>
</g>
<g id="Door Locked Left" vectornator:layerName="Door Locked Left" visibility="hidden">
<path stroke="#000000" stroke-width="1" d="M14.0302+34.8887C22.0554+34.8887+23.1316+44.7658+16.4369+45.9473C9.20293+47.2239+6.9407+37.1912+14.0302+34.8887Z" fill="#ffffff" stroke-linecap="butt" opacity="1" stroke-linejoin="round"/>
</g>
</svg>
