<?xml version="1.0" encoding="UTF-8" standalone="no"?> <!-- Created with Vectornator for iOS (http://vectornator.io/) --><!DOCTYPE svg PUBLIC "-//W3C//DTD SVG 1.1//EN" "http://www.w3.org/Graphics/SVG/1.1/DTD/svg11.dtd">
<svg height="100%" style="fill-rule:nonzero;clip-rule:evenodd;stroke-linecap:round;stroke-linejoin:round;" xmlns:xlink="http://www.w3.org/1999/xlink" xmlns="http://www.w3.org/2000/svg" xml:space="preserve" width="100%" xmlns:vectornator="http://vectornator.io" version="1.1" viewBox="0 0 100 100">
<metadata>
<vectornator:setting key="DimensionsVisible" value="1"/>
<vectornator:setting key="PencilOnly" value="0"/>
<vectornator:setting key="SnapToPoints" value="0"/>
<vectornator:setting key="OutlineMode" value="0"/>
<vectornator:setting key="CMYKEnabledKey" value="0"/>
<vectornator:setting key="RulersVisible" value="1"/>
<vectornator:setting key="SnapToEdges" value="0"/>
<vectornator:setting key="GuidesVisible" value="1"/>
<vectornator:setting key="DisplayWhiteBackground" value="0"/>
<vectornator:setting key="doHistoryDisabled" value="0"/>
<vectornator:setting key="SnapToGuides" value="1"/>
<vectornator:setting key="TimeLapseWatermarkDisabled" value="0"/>
<vectornator:setting key="Units" value="Points"/>
<vectornator:setting key="DynamicGuides" value="0"/>
<vectornator:setting key="IsolateActiveLayer" value="0"/>
<vectornator:setting key="SnapToGrid" value="0"/>
</metadata>
<defs/>
<g id="Floor Opening" vectornator:layerName="Floor Opening">
<path stroke="#000000" stroke-width="1" d="M3.38839+0.380623L95.358+0.380623L95.358+99.9441L3.38839+99.9441L3.38839+0.380623ZM5.70872+2.70096L5.70872+97.4128L93.0377+97.4128L93.0377+2.70096L5.70872+2.70096Z" fill="#ffffff" stroke-linecap="butt" opacity="1" stroke-linejoin="round"/>
<path d="M5.70872+2.70096L93.0377+2.70096L93.0377+97.4128L5.70872+97.4128L5.70872+2.70096ZM11.1932+7.97445C4.61754+13.818+16.0975+17.0452+15.3065+10.7167C15.1835+9.73311+14.4791+8.64443+13.5557+8.24866C12.927+7.97923+12.2881+7.97445+11.1932+7.97445ZM29.9668+7.97445C29.3035+8.47188+29.0416+8.62591+28.8066+8.8182C28.6534+8.94355+28.7408+8.8986+28.6168+9.05024C28.4598+9.2421+28.293+9.44057+28.1738+9.66196C27.9805+10.021+27.9228+10.4446+27.8785+10.8432C27.7593+11.9158+28.225+13.1414+29.1441+13.7542C33.7377+16.8166+36.9511+7.97445+29.9668+7.97445ZM48.1076+7.97445C44.5748+10.262+46.402+14.8828+50.0482+14.2394C53.7365+13.5885+53.2748+7.97445+48.1076+7.97445ZM67.0921+7.97445C60.8252+13.5374+71.2054+17.0217+71.2054+11.2229C71.2054+10.0887+70.6826+9.03212+69.7289+8.39633C69.5578+8.28225+69.6489+8.33192+69.4547+8.24866C68.826+7.97923+68.1871+7.97445+67.0921+7.97445ZM85.8657+7.97445C85.2025+8.47188+84.9406+8.62591+84.7056+8.8182C84.5955+8.90827+84.4998+9.04623+84.4103+9.15571C83.9001+9.77926+83.6892+10.6396+83.7774+11.4339C84.3036+16.1694+91.6544+14.2743+89.7681+9.8729C89.4527+9.13692+88.8887+8.42663+88.1017+8.16429C87.5143+7.96849+86.8983+7.97445+85.8657+7.97445ZM20.6854+17.0448L18.9979+17.8886C18.1561+19.4147+17.7265+21.3641+18.9979+22.7402C20.4879+23.5598+22.2942+23.9753+23.6386+22.7402C25.1517+20.1233+23.9961+17.0448+20.6854+17.0448ZM39.459+17.0448L37.7715+17.8886C33.6925+24.6753+45.7213+25.2231+43.0028+18.88C42.5107+17.7317+41.0883+17.0448+39.459+17.0448ZM57.8108+17.0448C53.9433+18.1286+55.0648+23.7443+58.5069+23.5418C62.6269+23.2994+62.3215+17.0448+57.8108+17.0448ZM76.5844+17.0448L74.8969+17.8886C74.0551+19.4147+73.6255+21.3641+74.8969+22.7402C76.3869+23.5598+78.1932+23.9753+79.5376+22.7402C81.0506+20.1233+79.8951+17.0448+76.5844+17.0448ZM11.1932+26.3262C4.61754+32.1698+16.0975+35.3969+15.3065+29.0684C15.1835+28.0848+14.4791+26.9962+13.5557+26.6004C12.927+26.331+12.2881+26.3262+11.1932+26.3262ZM29.9668+26.3262C29.3035+26.8236+29.0416+26.9777+28.8066+27.1699C26.9424+28.6952+27.9485+32.3247+30.3465+32.5911C35.2018+33.1306+35.5757+26.3262+29.9668+26.3262ZM48.1076+26.3262C44.5748+28.6138+46.402+33.2345+50.0482+32.5911C53.7365+31.9402+53.2748+26.3262+48.1076+26.3262ZM67.0921+26.3262C61.4329+31.3367+69.8344+35.3963+71.1211+30.2497C71.355+29.314+71.1297+28.2024+70.5094+27.4442C70.2312+27.1042+69.8591+26.7737+69.4547+26.6004C68.826+26.331+68.1871+26.3262+67.0921+26.3262ZM85.8657+26.3262C85.2025+26.8236+84.9406+26.9777+84.7056+27.1699C84.1099+27.6573+83.8587+28.464+83.7774+29.195C83.6583+30.2675+84.124+31.4932+85.0431+32.1059C89.6367+35.1683+92.8501+26.3262+85.8657+26.3262ZM20.6854+35.3966L18.9979+36.2403C18.1561+37.7664+17.7265+39.7158+18.9979+41.092C20.4879+41.9115+22.2942+42.327+23.6386+41.092C25.1517+38.475+23.9961+35.3966+20.6854+35.3966ZM39.459+35.3966L37.7715+36.2403C37.2322+37.275+36.9278+37.8658+36.9278+38.6661C36.9278+39.776+37.4876+41.0155+38.552+41.4716C43.8558+43.7447+45.1324+35.3966+39.459+35.3966ZM57.8108+35.3966C53.9433+36.4803+55.0648+42.096+58.5069+41.8935C62.6269+41.6512+62.3215+35.3966+57.8108+35.3966ZM76.5844+35.3966L74.8969+36.2403C74.0551+37.7664+73.6255+39.7158+74.8969+41.092C76.3869+41.9115+78.1932+42.327+79.5376+41.092C81.0506+38.475+79.8951+35.3966+76.5844+35.3966ZM11.1932+44.6779C5.88733+49.3672+13.1324+53.5477+14.9901+49.2131C15.3957+48.2666+15.3957+47.4174+14.9901+46.4709C14.718+45.8361+14.2027+45.2294+13.5557+44.9521C12.927+44.6827+12.2881+44.6779+11.1932+44.6779ZM29.9668+44.6779C29.3035+45.1754+29.0416+45.3294+28.8066+45.5217C27.5048+46.5868+27.641+48.7377+28.6168+49.9303C32.4602+54.6279+37.9045+44.6779+29.9668+44.6779ZM48.1076+44.6779C44.5748+46.9655+46.402+51.5863+50.0482+50.9428C53.7365+50.2919+53.2748+44.6779+48.1076+44.6779ZM67.0921+44.6779C60.8252+50.2409+71.2054+53.7252+71.2054+47.9264C71.2054+46.7921+70.6826+45.7356+69.7289+45.0998C69.5578+44.9857+69.6489+45.0354+69.4547+44.9521C68.826+44.6827+68.1871+44.6779+67.0921+44.6779ZM85.8657+44.6779C85.2025+45.1754+84.9406+45.3294+84.7056+45.5217C81.4517+48.184+86.5112+53.3461+89.2197+50.0358C91.3304+47.456+89.1834+44.6779+85.8657+44.6779ZM20.6854+53.7483L18.9979+54.5921C18.1561+56.1182+17.7265+58.0676+18.9979+59.4437C20.4879+60.2632+22.2942+60.6788+23.6386+59.4437C25.1517+56.8267+23.9961+53.7483+20.6854+53.7483ZM39.459+53.7483L37.7715+54.5921C37.0401+55.9389+36.7164+56.9743+37.0965+58.1148C37.4204+59.0865+38.0853+59.6234+38.995+60.0132C43.5047+61.946+45.0893+53.7483+39.459+53.7483ZM57.8108+53.7483C53.9433+54.832+55.0648+60.4477+58.5069+60.2453C62.6269+60.0029+62.3215+53.7483+57.8108+53.7483ZM76.5844+53.7483L74.8969+54.5921C74.0551+56.1182+73.6255+58.0676+74.8969+59.4437C76.3869+60.2632+78.1932+60.6788+79.5376+59.4437C81.0506+56.8267+79.8951+53.7483+76.5844+53.7483ZM11.1932+63.0297C4.61754+68.8733+16.0975+72.1004+15.3065+65.7719C15.1835+64.7883+14.4791+63.6996+13.5557+63.3039C12.927+63.0344+12.2881+63.0297+11.1932+63.0297ZM29.9668+63.0297C29.3035+63.5271+29.0416+63.6811+28.8066+63.8734C28.1699+64.3944+27.8988+65.3004+27.8574+66.0883C27.8041+67.0996+28.2866+68.2378+29.1441+68.8094C33.7377+71.8718+36.9511+63.0297+29.9668+63.0297ZM48.1076+63.0297C44.5748+65.3172+46.402+69.938+50.0482+69.2946C53.7365+68.6437+53.2748+63.0297+48.1076+63.0297ZM67.0921+63.0297C61.4329+68.0402+69.8344+72.0998+71.1211+66.9531C71.3831+65.905+71.0671+64.7054+70.2984+63.9367C70.0423+63.6806+69.7922+63.4485+69.4547+63.3039C68.826+63.0344+68.1871+63.0297+67.0921+63.0297ZM85.8657+63.0297C85.2025+63.5271+84.9406+63.6811+84.7056+63.8734C84.2744+64.2262+83.9932+64.8245+83.8618+65.35C83.5778+66.486+83.8784+67.6869+84.7056+68.5141C88.7846+72.5931+93.4953+63.0297+85.8657+63.0297ZM20.6854+72.1001L18.9979+72.9438C18.1561+74.4699+17.7265+76.4193+18.9979+77.7954C20.4879+78.615+22.2942+79.0305+23.6386+77.7954C25.1517+75.1785+23.9961+72.1001+20.6854+72.1001ZM39.459+72.1001L37.7715+72.9438C33.6925+79.7305+45.7213+80.2783+43.0028+73.9352C42.5107+72.787+41.0883+72.1001+39.459+72.1001ZM57.8108+72.1001C53.9433+73.1838+55.0648+78.7995+58.5069+78.597C62.6269+78.3546+62.3215+72.1001+57.8108+72.1001ZM76.5844+72.1001L74.8969+72.9438C74.0551+74.4699+73.6255+76.4193+74.8969+77.7954C76.3869+78.615+78.1932+79.0305+79.5376+77.7954C81.0506+75.1785+79.8951+72.1001+76.5844+72.1001ZM11.1932+81.3814C9.74731+82.5616+8.93955+83.3531+9.10485+84.8408C9.63516+89.6136+16.894+87.6169+15.0533+83.322C14.7551+82.6262+14.2758+81.9643+13.5557+81.6556C12.927+81.3862+12.2881+81.3814+11.1932+81.3814ZM29.9668+81.3814C29.3035+81.8788+29.0416+82.0329+28.8066+82.2252C27.4313+83.3504+27.6939+85.5293+28.7011+86.7604C32.3606+91.233+37.9787+81.3814+29.9668+81.3814ZM48.1076+81.3814C44.5748+83.669+46.402+88.2898+50.0482+87.6463C53.7365+86.9954+53.2748+81.3814+48.1076+81.3814ZM67.0921+81.3814C65.9093+82.3224+65.2308+82.8232+65.046+83.8705C64.1349+89.0335+72.32+88.582+71.1211+83.7861C70.9032+82.9145+70.3017+82.0186+69.4547+81.6556C68.826+81.3862+68.1871+81.3814+67.0921+81.3814ZM85.8657+81.3814C85.2025+81.8788+84.9406+82.0329+84.7056+82.2252C83.5015+83.2103+83.4673+85.3758+84.4103+86.5283C88.4194+91.4284+93.7629+81.3814+85.8657+81.3814ZM20.6854+90.4518L18.9979+91.2956C18.1561+92.8217+17.7265+94.7711+18.9979+96.1472C20.6345+97.0569+22.1559+97.5403+23.6386+96.1472C25.1517+93.5302+23.9961+90.4518+20.6854+90.4518ZM39.459+90.4518L37.7715+91.2956C37.3806+92.0891+37.0988+92.4708+37.0121+92.962C36.8034+94.1451+37.0886+95.5864+38.1512+96.2948C43.2438+99.6898+45.6109+90.4518+39.459+90.4518ZM57.8108+90.4518C53.7446+91.5823+55.2796+97.5209+58.8444+97.0753C62.7218+96.5906+62.1246+90.4518+57.8108+90.4518ZM76.5844+90.4518L74.8969+91.2956C74.0551+92.8217+73.6255+94.7711+74.8969+96.1472C76.5335+97.0569+78.0549+97.5403+79.5376+96.1472C81.0506+93.5302+79.8951+90.4518+76.5844+90.4518Z" opacity="1" fill="#b2b6b7"/>
<g opacity="1">
<path stroke="#000000" stroke-width="1" d="M57.8108+72.1001C62.3215+72.1001+62.6269+78.3546+58.5069+78.597C55.0648+78.7995+53.9433+73.1838+57.8108+72.1001Z" fill="#ffffff" stroke-linecap="butt" opacity="1" stroke-linejoin="round"/>
<path stroke="#000000" stroke-width="1" d="M39.459+17.0448C41.0883+17.0448+42.5107+17.7317+43.0028+18.88C45.7213+25.2231+33.6925+24.6753+37.7715+17.8886L39.459+17.0448Z" fill="#ffffff" stroke-linecap="butt" opacity="1" stroke-linejoin="round"/>
<path stroke="#000000" stroke-width="1" d="M29.9668+26.3262C35.5757+26.3262+35.2018+33.1306+30.3465+32.5911C27.9485+32.3247+26.9424+28.6952+28.8066+27.1699C29.0416+26.9777+29.3035+26.8236+29.9668+26.3262Z" fill="#ffffff" stroke-linecap="butt" opacity="1" stroke-linejoin="round"/>
<path stroke="#000000" stroke-width="1" d="M67.0921+81.3814C68.1871+81.3814+68.826+81.3862+69.4547+81.6556C70.3017+82.0186+70.9032+82.9145+71.1211+83.7861C72.32+88.582+64.1349+89.0335+65.046+83.8705C65.2308+82.8232+65.9093+82.3224+67.0921+81.3814Z" fill="#ffffff" stroke-linecap="butt" opacity="1" stroke-linejoin="round"/>
<path stroke="#000000" stroke-width="1" d="M85.8657+44.6779C89.1834+44.6779+91.3304+47.456+89.2197+50.0358C86.5112+53.3461+81.4517+48.184+84.7056+45.5217C84.9406+45.3294+85.2025+45.1754+85.8657+44.6779Z" fill="#ffffff" stroke-linecap="butt" opacity="1" stroke-linejoin="round"/>
<path stroke="#000000" stroke-width="1" d="M11.1932+26.3262C12.2881+26.3262+12.927+26.331+13.5557+26.6004C14.4791+26.9962+15.1835+28.0848+15.3065+29.0684C16.0975+35.3969+4.61754+32.1698+11.1932+26.3262Z" fill="#ffffff" stroke-linecap="butt" opacity="1" stroke-linejoin="round"/>
<path stroke="#000000" stroke-width="1" d="M20.6854+53.7483C23.9961+53.7483+25.1517+56.8267+23.6386+59.4437C22.2942+60.6788+20.4879+60.2632+18.9979+59.4437C17.7265+58.0676+18.1561+56.1182+18.9979+54.5921L20.6854+53.7483Z" fill="#ffffff" stroke-linecap="butt" opacity="1" stroke-linejoin="round"/>
<path stroke="#000000" stroke-width="1" d="M39.459+90.4518C45.6109+90.4518+43.2438+99.6898+38.1512+96.2948C37.0886+95.5864+36.8034+94.1451+37.0121+92.962C37.0988+92.4708+37.3806+92.0891+37.7715+91.2956L39.459+90.4518Z" fill="#ffffff" stroke-linecap="butt" opacity="1" stroke-linejoin="round"/>
<path stroke="#000000" stroke-width="1" d="M67.0921+26.3262C68.1871+26.3262+68.826+26.331+69.4547+26.6004C69.8591+26.7737+70.2312+27.1042+70.5094+27.4442C71.1297+28.2024+71.355+29.314+71.1211+30.2497C69.8344+35.3963+61.4329+31.3367+67.0921+26.3262Z" fill="#ffffff" stroke-linecap="butt" opacity="1" stroke-linejoin="round"/>
<path stroke="#000000" stroke-width="1" d="M57.8108+17.0448C62.3215+17.0448+62.6269+23.2994+58.5069+23.5418C55.0648+23.7443+53.9433+18.1286+57.8108+17.0448Z" fill="#ffffff" stroke-linecap="butt" opacity="1" stroke-linejoin="round"/>
<path stroke="#000000" stroke-width="1" d="M85.8657+63.0297C93.4953+63.0297+88.7846+72.5931+84.7056+68.5141C83.8784+67.6869+83.5778+66.486+83.8618+65.35C83.9932+64.8245+84.2744+64.2262+84.7056+63.8734C84.9406+63.6811+85.2025+63.5271+85.8657+63.0297Z" fill="#ffffff" stroke-linecap="butt" opacity="1" stroke-linejoin="round"/>
<path stroke="#000000" stroke-width="1" d="M29.9668+7.97444C36.9511+7.97444+33.7377+16.8166+29.1441+13.7542C28.225+13.1414+27.7593+11.9158+27.8785+10.8432C27.9228+10.4446+27.9805+10.021+28.1738+9.66196C28.293+9.44056+28.4598+9.24209+28.6168+9.05024C28.7408+8.8986+28.6534+8.94355+28.8066+8.8182C29.0416+8.62591+29.3035+8.47188+29.9668+7.97444Z" fill="#ffffff" stroke-linecap="butt" opacity="1" stroke-linejoin="round"/>
<path stroke="#000000" stroke-width="1" d="M85.8657+7.97444C86.8983+7.97444+87.5143+7.96849+88.1017+8.16429C88.8887+8.42662+89.4527+9.13692+89.7681+9.8729C91.6544+14.2743+84.3036+16.1694+83.7774+11.4339C83.6892+10.6396+83.9001+9.77925+84.4103+9.1557C84.4998+9.04623+84.5955+8.90827+84.7056+8.8182C84.9406+8.62591+85.2025+8.47188+85.8657+7.97444Z" fill="#ffffff" stroke-linecap="butt" opacity="1" stroke-linejoin="round"/>
<path stroke="#000000" stroke-width="1" d="M11.1932+63.0297C12.2881+63.0297+12.927+63.0344+13.5557+63.3039C14.4791+63.6996+15.1835+64.7883+15.3065+65.7719C16.0975+72.1004+4.61754+68.8733+11.1932+63.0297Z" fill="#ffffff" stroke-linecap="butt" opacity="1" stroke-linejoin="round"/>
<path stroke="#000000" stroke-width="1" d="M76.5844+90.4518C79.8951+90.4518+81.0506+93.5302+79.5376+96.1472C78.0549+97.5403+76.5335+97.0569+74.8969+96.1472C73.6255+94.7711+74.0551+92.8217+74.8969+91.2956L76.5844+90.4518Z" fill="#ffffff" stroke-linecap="butt" opacity="1" stroke-linejoin="round"/>
<path stroke="#000000" stroke-width="1" d="M57.8108+53.7483C62.3215+53.7483+62.6269+60.0029+58.5069+60.2453C55.0648+60.4477+53.9433+54.832+57.8108+53.7483Z" fill="#ffffff" stroke-linecap="butt" opacity="1" stroke-linejoin="round"/>
<path stroke="#000000" stroke-width="1" d="M76.5844+72.1001C79.8951+72.1001+81.0506+75.1785+79.5376+77.7954C78.1932+79.0305+76.3869+78.615+74.8969+77.7954C73.6255+76.4193+74.0551+74.4699+74.8969+72.9438L76.5844+72.1001Z" fill="#ffffff" stroke-linecap="butt" opacity="1" stroke-linejoin="round"/>
<path stroke="#000000" stroke-width="1" d="M48.1076+63.0297C53.2748+63.0297+53.7365+68.6437+50.0482+69.2946C46.402+69.938+44.5748+65.3172+48.1076+63.0297Z" fill="#ffffff" stroke-linecap="butt" opacity="1" stroke-linejoin="round"/>
<path stroke="#000000" stroke-width="1" d="M76.5844+35.3966C79.8951+35.3966+81.0506+38.475+79.5376+41.092C78.1932+42.327+76.3869+41.9115+74.8969+41.092C73.6255+39.7158+74.0551+37.7664+74.8969+36.2403L76.5844+35.3966Z" fill="#ffffff" stroke-linecap="butt" opacity="1" stroke-linejoin="round"/>
<path stroke="#000000" stroke-width="1" d="M57.8108+35.3966C62.3215+35.3966+62.6269+41.6512+58.5069+41.8935C55.0648+42.096+53.9433+36.4803+57.8108+35.3966Z" fill="#ffffff" stroke-linecap="butt" opacity="1" stroke-linejoin="round"/>
<path stroke="#000000" stroke-width="1" d="M85.8657+81.3814C93.7629+81.3814+88.4194+91.4284+84.4103+86.5283C83.4673+85.3758+83.5015+83.2103+84.7056+82.2252C84.9406+82.0329+85.2025+81.8788+85.8657+81.3814Z" fill="#ffffff" stroke-linecap="butt" opacity="1" stroke-linejoin="round"/>
<path stroke="#000000" stroke-width="1" d="M29.9668+44.6779C37.9045+44.6779+32.4602+54.6279+28.6168+49.9303C27.641+48.7377+27.5048+46.5868+28.8066+45.5217C29.0416+45.3294+29.3035+45.1754+29.9668+44.6779Z" fill="#ffffff" stroke-linecap="butt" opacity="1" stroke-linejoin="round"/>
<path stroke="#000000" stroke-width="1" d="M67.0921+63.0297C68.1871+63.0297+68.826+63.0344+69.4547+63.3039C69.7922+63.4485+70.0423+63.6806+70.2984+63.9367C71.0671+64.7054+71.3831+65.905+71.1211+66.9531C69.8344+72.0998+61.4329+68.0402+67.0921+63.0297Z" fill="#ffffff" stroke-linecap="butt" opacity="1" stroke-linejoin="round"/>
<path stroke="#000000" stroke-width="1" d="M48.1076+44.6779C53.2748+44.6779+53.7365+50.292+50.0482+50.9428C46.402+51.5863+44.5748+46.9655+48.1076+44.6779Z" fill="#ffffff" stroke-linecap="butt" opacity="1" stroke-linejoin="round"/>
<path stroke="#000000" stroke-width="1" d="M48.1076+7.97445C53.2748+7.97445+53.7365+13.5885+50.0482+14.2394C46.402+14.8828+44.5748+10.262+48.1076+7.97445Z" fill="#ffffff" stroke-linecap="butt" opacity="1" stroke-linejoin="round"/>
<path stroke="#000000" stroke-width="1" d="M39.459+35.3966C45.1324+35.3966+43.8558+43.7447+38.552+41.4716C37.4876+41.0155+36.9278+39.776+36.9278+38.6661C36.9278+37.8658+37.2322+37.275+37.7715+36.2403L39.459+35.3966Z" fill="#ffffff" stroke-linecap="butt" opacity="1" stroke-linejoin="round"/>
<path stroke="#000000" stroke-width="1" d="M67.0921+44.6779C68.1871+44.6779+68.826+44.6827+69.4547+44.9521C69.6489+45.0354+69.5578+44.9857+69.7289+45.0998C70.6826+45.7356+71.2055+46.7921+71.2055+47.9264C71.2055+53.7252+60.8252+50.2409+67.0921+44.6779Z" fill="#ffffff" stroke-linecap="butt" opacity="1" stroke-linejoin="round"/>
<path stroke="#000000" stroke-width="1" d="M29.9668+63.0297C36.9511+63.0297+33.7377+71.8718+29.1441+68.8094C28.2866+68.2378+27.8041+67.0996+27.8574+66.0883C27.8988+65.3004+28.1699+64.3944+28.8066+63.8734C29.0416+63.6811+29.3035+63.5271+29.9668+63.0297Z" fill="#ffffff" stroke-linecap="butt" opacity="1" stroke-linejoin="round"/>
<path stroke="#000000" stroke-width="1" d="M57.8108+90.4518C62.1246+90.4518+62.7218+96.5906+58.8444+97.0753C55.2796+97.5209+53.7447+91.5823+57.8108+90.4518Z" fill="#ffffff" stroke-linecap="butt" opacity="1" stroke-linejoin="round"/>
<path stroke="#000000" stroke-width="1" d="M11.1932+44.6779C12.2881+44.6779+12.927+44.6827+13.5557+44.9521C14.2027+45.2294+14.718+45.8361+14.9901+46.4709C15.3957+47.4174+15.3957+48.2666+14.9901+49.2131C13.1324+53.5477+5.88733+49.3672+11.1932+44.6779Z" fill="#ffffff" stroke-linecap="butt" opacity="1" stroke-linejoin="round"/>
<path stroke="#000000" stroke-width="1" d="M20.6854+35.3966C23.9961+35.3966+25.1517+38.475+23.6386+41.092C22.2942+42.327+20.4879+41.9115+18.9979+41.092C17.7265+39.7158+18.1561+37.7664+18.9979+36.2403L20.6854+35.3966Z" fill="#ffffff" stroke-linecap="butt" opacity="1" stroke-linejoin="round"/>
<path stroke="#000000" stroke-width="1" d="M48.1076+81.3814C53.2748+81.3814+53.7365+86.9954+50.0482+87.6463C46.402+88.2898+44.5748+83.669+48.1076+81.3814Z" fill="#ffffff" stroke-linecap="butt" opacity="1" stroke-linejoin="round"/>
<path stroke="#000000" stroke-width="1" d="M76.5844+17.0448C79.8951+17.0448+81.0506+20.1233+79.5376+22.7402C78.1932+23.9753+76.3869+23.5598+74.8969+22.7402C73.6255+21.3641+74.0551+19.4147+74.8969+17.8886L76.5844+17.0448Z" fill="#ffffff" stroke-linecap="butt" opacity="1" stroke-linejoin="round"/>
<path stroke="#000000" stroke-width="1" d="M20.6854+90.4518C23.9961+90.4518+25.1517+93.5302+23.6386+96.1472C22.1559+97.5403+20.6345+97.0569+18.9979+96.1472C17.7265+94.7711+18.1561+92.8217+18.9979+91.2956L20.6854+90.4518Z" fill="#ffffff" stroke-linecap="butt" opacity="1" stroke-linejoin="round"/>
<path stroke="#000000" stroke-width="1" d="M85.8657+26.3262C92.8501+26.3262+89.6367+35.1684+85.0431+32.1059C84.124+31.4932+83.6583+30.2675+83.7774+29.195C83.8587+28.464+84.1099+27.6573+84.7056+27.1699C84.9406+26.9777+85.2025+26.8236+85.8657+26.3262Z" fill="#ffffff" stroke-linecap="butt" opacity="1" stroke-linejoin="round"/>
<path stroke="#000000" stroke-width="1" d="M39.459+53.7483C45.0893+53.7483+43.5047+61.946+38.995+60.0132C38.0853+59.6234+37.4204+59.0865+37.0965+58.1148C36.7164+56.9743+37.0401+55.9389+37.7715+54.5921L39.459+53.7483Z" fill="#ffffff" stroke-linecap="butt" opacity="1" stroke-linejoin="round"/>
<path stroke="#000000" stroke-width="1" d="M20.6854+72.1001C23.9961+72.1001+25.1517+75.1785+23.6386+77.7954C22.2942+79.0305+20.4879+78.615+18.9979+77.7954C17.7265+76.4193+18.1561+74.4699+18.9979+72.9438L20.6854+72.1001Z" fill="#ffffff" stroke-linecap="butt" opacity="1" stroke-linejoin="round"/>
<path stroke="#000000" stroke-width="1" d="M11.1932+7.97444C12.2881+7.97444+12.927+7.97922+13.5557+8.24866C14.4791+8.64443+15.1835+9.73311+15.3065+10.7167C16.0975+17.0452+4.61754+13.818+11.1932+7.97444Z" fill="#ffffff" stroke-linecap="butt" opacity="1" stroke-linejoin="round"/>
<path stroke="#000000" stroke-width="1" d="M39.459+72.1001C41.0883+72.1001+42.5107+72.787+43.0028+73.9352C45.7213+80.2783+33.6925+79.7305+37.7715+72.9438L39.459+72.1001Z" fill="#ffffff" stroke-linecap="butt" opacity="1" stroke-linejoin="round"/>
<path stroke="#000000" stroke-width="1" d="M48.1076+26.3262C53.2748+26.3262+53.7365+31.9402+50.0482+32.5911C46.402+33.2345+44.5748+28.6138+48.1076+26.3262Z" fill="#ffffff" stroke-linecap="butt" opacity="1" stroke-linejoin="round"/>
<path stroke="#000000" stroke-width="1" d="M29.9668+81.3814C37.9787+81.3814+32.3606+91.233+28.7011+86.7604C27.6939+85.5293+27.4313+83.3504+28.8066+82.2252C29.0416+82.0329+29.3035+81.8788+29.9668+81.3814Z" fill="#ffffff" stroke-linecap="butt" opacity="1" stroke-linejoin="round"/>
<path stroke="#000000" stroke-width="1" d="M11.1932+81.3814C12.2881+81.3814+12.927+81.3862+13.5557+81.6556C14.2758+81.9643+14.7551+82.6262+15.0533+83.322C16.894+87.6169+9.63516+89.6136+9.10485+84.8408C8.93955+83.3531+9.74731+82.5616+11.1932+81.3814Z" fill="#ffffff" stroke-linecap="butt" opacity="1" stroke-linejoin="round"/>
<path stroke="#000000" stroke-width="1" d="M76.5844+53.7483C79.8951+53.7483+81.0506+56.8267+79.5376+59.4437C78.1932+60.6788+76.3869+60.2632+74.8969+59.4437C73.6255+58.0676+74.0551+56.1182+74.8969+54.5921L76.5844+53.7483Z" fill="#ffffff" stroke-linecap="butt" opacity="1" stroke-linejoin="round"/>
<path stroke="#000000" stroke-width="1" d="M67.0921+7.97444C68.1871+7.97444+68.826+7.97923+69.4547+8.24867C69.6489+8.33192+69.5578+8.28225+69.7289+8.39632C70.6826+9.03212+71.2055+10.0887+71.2055+11.2229C71.2055+17.0217+60.8252+13.5374+67.0921+7.97444Z" fill="#ffffff" stroke-linecap="butt" opacity="1" stroke-linejoin="round"/>
<path stroke="#000000" stroke-width="1" d="M20.6854+17.0448C23.9961+17.0448+25.1517+20.1233+23.6386+22.7402C22.2942+23.9753+20.4879+23.5598+18.9979+22.7402C17.7265+21.3641+18.1561+19.4147+18.9979+17.8886L20.6854+17.0448Z" fill="#ffffff" stroke-linecap="butt" opacity="1" stroke-linejoin="round"/>
</g>
</g>
</svg>
