<?xml version="1.0" encoding="UTF-8" standalone="no"?> <!-- Created with Vectornator for iOS (http://vectornator.io/) --><!DOCTYPE svg PUBLIC "-//W3C//DTD SVG 1.1//EN" "http://www.w3.org/Graphics/SVG/1.1/DTD/svg11.dtd">
<svg height="100%" style="fill-rule:nonzero;clip-rule:evenodd;stroke-linecap:round;stroke-linejoin:round;" xmlns:xlink="http://www.w3.org/1999/xlink" xmlns="http://www.w3.org/2000/svg" xml:space="preserve" width="100%" xmlns:vectornator="http://vectornator.io" version="1.1" viewBox="0 0 100 100">
<metadata>
<vectornator:setting key="DimensionsVisible" value="1"/>
<vectornator:setting key="PencilOnly" value="0"/>
<vectornator:setting key="SnapToPoints" value="0"/>
<vectornator:setting key="OutlineMode" value="0"/>
<vectornator:setting key="CMYKEnabledKey" value="0"/>
<vectornator:setting key="RulersVisible" value="1"/>
<vectornator:setting key="SnapToEdges" value="0"/>
<vectornator:setting key="GuidesVisible" value="1"/>
<vectornator:setting key="DisplayWhiteBackground" value="0"/>
<vectornator:setting key="doHistoryDisabled" value="0"/>
<vectornator:setting key="SnapToGuides" value="1"/>
<vectornator:setting key="TimeLapseWatermarkDisabled" value="0"/>
<vectornator:setting key="Units" value="Points"/>
<vectornator:setting key="DynamicGuides" value="0"/>
<vectornator:setting key="IsolateActiveLayer" value="0"/>
<vectornator:setting key="SnapToGrid" value="0"/>
</metadata>
<defs/>
<g id="Untitled" vectornator:layerName="Untitled">
<g opacity="1">
<path stroke="#ffffff" stroke-width="1" d="M34.0682-0.481643C34.5977-0.481643+35.039-0.481643+35.6569-0.481643C35.4928+0.174761+35.4618+0.577453+35.3038+1.28355C34.8037+1.28355+34.4801+1.28355+34.0682+1.28355C34.0682+0.518632+34.0682+0.195014+34.0682-0.481643Z" fill="#000000" stroke-linecap="butt" opacity="1" stroke-linejoin="round"/>
<path stroke="#ffffff" stroke-width="1" d="M7.4138+80.8936L7.4138+81.0702C4.73955+81.0702+2.53602+81.7762+0+81.7762C0+81.4526+0+81.129+0+80.7171C2.27935+79.9819+5.3276+80.3721+7.4138+80.8936Z" fill="#000000" stroke-linecap="butt" opacity="1" stroke-linejoin="round"/>
<path stroke="#ffffff" stroke-width="1" d="M0+14.5225C0.990402+15.6665+1.79366+16.4288+2.38301+17.5233C3.17038+18.9856+5.80685+27.4953+3.88342+28.1144C3.77436+27.9171+3.83677+27.9379+3.7069+27.9379C3.7069+27.3201+3.7069+26.8788+3.7069+26.3493C3.95364+24.6601+3.5696+23.0689+3.02464+21.5107C2.47968+19.9526+1.77379+18.4274+1.05911+16.8172C0.775272+16.2236+0.477251+15.8998+0+15.5816C0+15.258+0+14.9344+0+14.5225Z" fill="#000000" stroke-linecap="butt" opacity="1" stroke-linejoin="round"/>
<path stroke="#ffffff" stroke-width="1" d="M0+45.5898C1.82717+46.6328+3.80048+46.5322+5.29557+48.0611C3.34478+47.6332+1.86581+46.7624+0+46.2959L0+45.5898Z" fill="#000000" stroke-linecap="butt" opacity="1" stroke-linejoin="round"/>
<path stroke="#ffffff" stroke-width="1" d="M99.3802+88.6605C99.6084+90.5752+99.6157+92.2055+99.6028+93.8365C99.5899+95.4674+99.5568+97.099+99.5568+99.0751L99.3802+99.0751C99.3802+95.427+99.3802+92.2203+99.3802+88.6605Z" fill="#000000" stroke-linecap="butt" opacity="1" stroke-linejoin="round"/>
<path stroke="#ffffff" stroke-width="1" d="M33.8917+95.1917C33.4221+97.0121+31.8123+97.693+30.8908+99.0751C30.3613+99.0751+29.92+99.0751+29.3022+99.0751C30.919+97.7301+32.1758+96.3356+33.8917+95.1917Z" fill="#000000" stroke-linecap="butt" opacity="1" stroke-linejoin="round"/>
<path stroke="#ffffff" stroke-width="1" d="M62.6643-0.481648C63.4586-0.481648+63.8999-0.481648+64.7825-0.481648C64.7825-0.273916+65.0753-0.277105+65.3121-0.12861C66.6866+0.558653+67.9217+1.45052+69.372+1.8131C69.372+2.16614+69.372+2.43092+69.372+2.6957C67.6061+1.54783+64.6564+0.192892+62.6643-0.305129L62.6643-0.481648Z" fill="#000000" stroke-linecap="butt" opacity="1" stroke-linejoin="round"/>
<path stroke="#ffffff" stroke-width="1" d="M24.8892+65.5365C25.4383+68.0026+26.6544+69.4591+26.6544+72.0677L26.4779+72.0677C25.4226+70.2205+24.3596+68.075+24.3596+65.8895C24.5663+65.7712+24.7184+65.5365+24.8892+65.5365Z" fill="#000000" stroke-linecap="butt" opacity="1" stroke-linejoin="round"/>
<path stroke="#ffffff" stroke-width="1" d="M1.05911+16.8172C1.77379+18.4274+2.47968+19.9526+3.02464+21.5107C3.5696+23.0689+3.95364+24.6601+3.7069+26.3493C3.7069+23.2716+2.22935+19.5107+1.05911+16.8172Z" fill="#000000" stroke-linecap="butt" opacity="1" stroke-linejoin="round"/>
<path stroke="#ffffff" stroke-width="1" d="M1.23563-0.481643C3.38328-0.481643+5.17789-0.481643+7.4138-0.481643L7.4138-0.305124C6.25495+0.326545+3.68381-0.305124+2.29475-0.305124C2.60379+0.329452+2.65221+0.759044+3.00082+1.28355C2.58895+1.28355+2.26533+1.28355+1.94171+1.28355C1.79034+0.55184+1.59122+0.0517296+1.23563-0.481643Z" fill="#000000" stroke-linecap="butt" opacity="1" stroke-linejoin="round"/>
<path stroke="#ffffff" stroke-width="1" d="M99.3802-0.481645L99.5568-0.481645C99.5568+1.47478+99.5568+3.07816+99.5568+4.68154C99.5568+6.28492+99.5568+7.8883+99.5568+9.93298L99.3802+9.93298C99.3802+6.34376+99.3802+3.19584+99.3802-0.305126L99.3802-0.481645Z" fill="#000000" stroke-linecap="butt" opacity="1" stroke-linejoin="round"/>
<path stroke="#ffffff" stroke-width="1" d="M74.4734+97.7336C75.3291+97.4891+76.4218+98.5401+77.3153+99.0751C76.6387+99.0751+76.3151+99.0751+75.5502+99.0751C75.0343+98.5606+74.5045+98.5452+74.2439+98.2102C74.0668+97.9824+74.225+97.8045+74.4734+97.7336Z" fill="#000000" stroke-linecap="butt" opacity="1" stroke-linejoin="round"/>
<path stroke="#ffffff" stroke-width="1" d="M9.35551+98.1925C9.35551+98.4279+9.35551+98.575+9.35551+98.7221C8.47687+98.7221+7.82686+98.6821+7.23728+99.0751L4.41298+99.0751C6.09156+98.2358+7.47788+98.1925+9.35551+98.1925Z" fill="#000000" stroke-linecap="butt" opacity="1" stroke-linejoin="round"/>
<path stroke="#ffffff" stroke-width="1" d="M99.3802+62.5357L99.5568+62.5357C99.5568+64.2567+99.5568+65.5365+99.5568+66.8162C99.5568+68.096+99.5568+69.3758+99.5568+71.0086L99.3802+71.0086C99.1563+70.5122+99.3802+63.7633+99.3802+62.5357Z" fill="#000000" stroke-linecap="butt" opacity="1" stroke-linejoin="round"/>
<path stroke="#ffffff" stroke-width="1" d="M99.3802+71.0086L99.5568+71.0086C99.5568+76.716+99.5568+81.9822+99.5568+87.6014L99.2037+87.6014L99.2037+87.4249C99.6123+81.9004+99.3802+76.5998+99.3802+71.0086Z" fill="#000000" stroke-linecap="butt" opacity="1" stroke-linejoin="round"/>
<path stroke="#ffffff" stroke-width="1" d="M99.3802+19.9946C99.8746+27.2333+99.8819+34.2294+99.8025+41.2281C99.723+48.2268+99.5568+55.228+99.5568+62.5357L99.3802+62.5357C99.3802+48.1788+99.3802+34.2632+99.3802+19.9946Z" fill="#000000" stroke-linecap="butt" opacity="1" stroke-linejoin="round"/>
<path stroke="#ffffff" stroke-width="1" d="M96.3794+9.93298C97.5562+9.93298+98.2917+9.93298+99.3802+9.93298L99.5568+9.93298C99.5568+13.1409+99.7185+15.9648+99.3802+18.9355C99.3802+15.9935+99.3802+13.4928+99.3802+10.6391C98.1937+10.6391+97.3913+10.7155+96.3794+10.4625C96.3794+10.2272+96.3794+10.0801+96.3794+9.93298Z" fill="#000000" stroke-linecap="butt" opacity="1" stroke-linejoin="round"/>
<path stroke="#ffffff" stroke-width="1" d="M95.4968+84.424C97.5168+84.8682+98.0031+86.1536+99.2037+87.4249L99.2037+87.6014L99.5568+87.6014C99.5568+87.9722+99.3802+88.1464+99.3802+88.484C97.6549+87.3665+96.6231+86.1134+95.4968+84.424Z" fill="#000000" stroke-linecap="butt" opacity="1" stroke-linejoin="round"/>
<path stroke="#ffffff" stroke-width="1" d="M99.3802+19.112C99.3802+19.465+99.3802+19.7298+99.3802+19.9946C96.4015+19.3248+93.8839+20.8772+90.9073+20.8772C90.9073+20.5241+90.9073+20.2593+90.9073+19.9946C91.1046+19.8855+91.0838+19.9479+91.0838+19.818C93.6674+19.11+96.7526+19.112+99.3802+19.112Z" fill="#000000" stroke-linecap="butt" opacity="1" stroke-linejoin="round"/>
<path stroke="#ffffff" stroke-width="1" d="M99.5568-0.481647C100.438+10.0882+99.7333+33.4071+99.7333+45.1485C99.7333+60.7595+100.437+84.1235+99.5568+99.0751C99.5568+97.099+99.5899+95.4674+99.6028+93.8365C99.6157+92.2055+99.6084+90.5752+99.3802+88.6605L99.3802+88.484C99.3802+88.1464+99.5568+87.9722+99.5568+87.6014C99.5568+81.9822+99.5568+76.716+99.5568+71.0086C99.5568+69.3758+99.5568+68.096+99.5568+66.8162C99.5568+65.5365+99.5568+64.2567+99.5568+62.5357C99.5568+55.228+99.723+48.2268+99.8025+41.2281C99.8819+34.2294+99.8746+27.2333+99.3802+19.9946C99.3802+19.7298+99.3802+19.465+99.3802+19.112L99.3802+18.9355C99.7185+15.9648+99.5568+13.1409+99.5568+9.93298C99.5568+7.8883+99.5568+6.28492+99.5568+4.68153C99.5568+3.07816+99.5568+1.47477+99.5568-0.481647Z" fill="#000000" stroke-linecap="butt" opacity="1" stroke-linejoin="round"/>
<path stroke="#ffffff" stroke-width="1" d="M35.6569-0.481643C44.7476-0.481643+53.4853-0.481643+62.6643-0.481643L62.6643-0.305124C53.5441-0.305124+44.8653-0.305124+35.8334-0.305124C35.6967+0.338499+35.6569+0.6373+35.6569+1.28355L35.3038+1.28355C35.4618+0.577453+35.4928+0.174761+35.6569-0.481643Z" fill="#000000" stroke-linecap="butt" opacity="1" stroke-linejoin="round"/>
<path stroke="#ffffff" stroke-width="1" d="M7.4138-0.481643C16.3869-0.481643+25.0069-0.481643+34.0682-0.481643C34.0682+0.195014+34.0682+0.518632+34.0682+1.28355C33.9054+0.674817+33.8917+0.362954+33.8917-0.305124C24.8892-0.305124+16.328-0.305124+7.4138-0.305124L7.4138-0.481643Z" fill="#000000" stroke-linecap="butt" opacity="1" stroke-linejoin="round"/>
<path stroke="#ffffff" stroke-width="1" d="M64.7825-0.481644C76.4033-0.481644+87.6711-0.481644+99.3802-0.481644L99.3802-0.305125C88.324-0.305125+75.9184-1.01229+65.3121-0.128606C65.0753-0.2771+64.7825-0.273911+64.7825-0.481644Z" fill="#000000" stroke-linecap="butt" opacity="1" stroke-linejoin="round"/>
<path stroke="#ffffff" stroke-width="1" d="M54.8974+1.8131C54.8974+2.36605+55.153+2.4217+55.6035+2.6957L55.6035+2.87222L55.2505+2.87222C53.8295+2.33826+49.4308+2.52645+48.8958+1.98962C49.991+0.346763+53.1708+1.8131+54.8974+1.8131Z" fill="#000000" stroke-linecap="butt" opacity="1" stroke-linejoin="round"/>
<path stroke="#ffffff" stroke-width="1" d="M16.5928+59.7114C18.6384+60.5576+17.8857+65.0724+17.2989+66.7721C17.2989+64.3342+16.5928+62.4029+16.5928+59.7114Z" fill="#000000" stroke-linecap="butt" opacity="1" stroke-linejoin="round"/>
<path stroke="#ffffff" stroke-width="1" d="M48.7193+16.6407C49.5724+16.6407+50.0726+16.6407+51.014+16.6407C49.9944+18.1702+47.6863+18.4749+45.895+18.9355C46.1893+17.7579+47.5261+17.0668+48.7193+16.6407Z" fill="#000000" stroke-linecap="butt" opacity="1" stroke-linejoin="round"/>
<path stroke="#ffffff" stroke-width="1" d="M35.6569+70.479C36.4012+72.0846+37.3688+73.5919+38.3046+75.245C37.7245+75.3901+37.3699+75.3835+36.716+75.245C35.8836+74.296+35.16+72.0611+34.7743+70.6555C35.2706+71.8202+36.1009+74.1552+36.8925+75.0685C37.3044+75.0685+37.628+75.0685+37.9516+75.0685C37.1681+73.5014+36.0755+72.1536+35.6569+70.479Z" fill="#000000" stroke-linecap="butt" opacity="1" stroke-linejoin="round"/>
<path stroke="#ffffff" stroke-width="1" d="M59.3104+47.002C59.9114+47.002+60.2474+47.0741+60.8991+47.1785C60.8991+47.3084+60.8783+47.246+61.0756+47.355C61.0756+47.6925+61.2521+47.8668+61.2521+48.2376C61.1123+48.2376+61.0847+48.2761+61.1058+48.3285C61.1269+48.3809+61.1968+48.4471+61.2521+48.5907C60.6823+48.1916+59.9373+47.866+59.1339+47.7081C59.1339+47.561+59.1339+47.4139+59.1339+47.1785C59.2638+47.1785+59.2013+47.1993+59.3104+47.002Z" fill="#000000" stroke-linecap="butt" opacity="1" stroke-linejoin="round"/>
<path stroke="#ffffff" stroke-width="1" d="M60.193+68.7138C59.1364+71.1783+59.3104+73.1992+59.3104+76.1276C59.0965+74.8981+58.863+73.463+58.863+72.0887C58.863+70.7143+59.0965+69.4006+60.193+68.7138Z" fill="#000000" stroke-linecap="butt" opacity="1" stroke-linejoin="round"/>
<path stroke="#ffffff" stroke-width="1" d="M10.9442+36.0578C14.4683+37.2591+17.3387+38.8138+20.6527+40.4708C20.1778+40.804+19.7709+40.83+19.4347+40.7179C18.7248+40.4813+18.2945+39.6966+17.6343+39.3411C15.8083+38.3578+12.5202+38.1592+10.9442+36.0578Z" fill="#000000" stroke-linecap="butt" opacity="1" stroke-linejoin="round"/>
<path stroke="#ffffff" stroke-width="1" d="M81.7283+60.2409C81.8754+60.2409+82.0225+60.2409+82.2579+60.2409C81.77+61.8031+79.2602+68.6716+78.1979+68.8903C79.0629+66.2912+79.5649+63.8453+80.4927+61.3C79.9193+63.8693+79.1693+66.0639+78.551+68.5373C79.4943+68.0383+79.5396+67.0542+79.6984+66.4191C79.993+65.2405+81.9572+61.2875+81.7283+60.2409Z" fill="#000000" stroke-linecap="butt" opacity="1" stroke-linejoin="round"/>
<path stroke="#ffffff" stroke-width="1" d="M5.82513+92.7204C7.03134+92.7204+7.88452+92.7204+9.17899+92.7204C9.17899+92.8503+9.15819+92.7879+9.35551+92.8969C9.35551+93.044+9.35551+93.1911+9.35551+93.4265C7.32095+93.4265+0.821935+95.1545+0.529557+93.7795C0.659423+93.7795+0.597014+93.8003+0.706076+93.603C2.18305+93.041+4.14052+92.8969+5.82513+92.7204Z" fill="#000000" stroke-linecap="butt" opacity="1" stroke-linejoin="round"/>
<path stroke="#ffffff" stroke-width="1" d="M58.4278+20.7006C60.1685+20.7006+61.5543+20.8772+63.3703+20.8772L63.3703+21.0537C59.3525+21.0537+57.4123+22.9954+55.9565+22.9954C55.9565+22.8655+55.9773+22.9279+55.78+22.8189C56.1268+21.6446+57.2179+21.1082+58.4278+20.7006Z" fill="#000000" stroke-linecap="butt" opacity="1" stroke-linejoin="round"/>
<path stroke="#ffffff" stroke-width="1" d="M92.143+0.400952C94.1007+0.400952+95.8272+0.239413+97.7916+0.75399L97.7916+1.10703C93.4447+1.10703+91.4104+2.16614+88.7891+2.16614C88.7891+1.84252+88.7891+1.51891+88.7891+1.10703C88.919+1.10703+88.8565+1.12783+88.9656+0.930509C90.0795+0.930509+91.016+0.811476+92.143+0.400952Z" fill="#000000" stroke-linecap="butt" opacity="1" stroke-linejoin="round"/>
<path stroke="#ffffff" stroke-width="1" d="M1.23563+40.2943C3.51562+41.0431+6.11866+41.2646+7.94336+42.7655C5.95172+41.9462+3.31924+41.5299+1.05911+41.5299C1.05911+41.4+1.07992+41.4624+0.882595+41.3534C0.882595+41.0886+0.882595+40.8238+0.882595+40.4708L1.23563+40.2943Z" fill="#000000" stroke-linecap="butt" opacity="1" stroke-linejoin="round"/>
<path stroke="#ffffff" stroke-width="1" d="M91.0838+43.6481C93.4106+44.414+95.782+44.1777+98.3211+44.1777C97.2831+45.7348+92.5483+44.481+91.0838+43.6481Z" fill="#000000" stroke-linecap="butt" opacity="1" stroke-linejoin="round"/>
<path stroke="#ffffff" stroke-width="1" d="M68.6659+72.0677L69.372+72.0677C69.372+74.2691+69.4021+80.0886+68.1364+81.5997C68.1364+78.6967+66.5071+74.5659+68.6659+72.0677Z" fill="#000000" stroke-linecap="butt" opacity="1" stroke-linejoin="round"/>
<path stroke="#ffffff" stroke-width="1" d="M10.0616+22.8189C11.3821+23.2188+12.0823+24.2116+13.592+24.5841L13.592+25.2901C12.257+25.2901+10.2258+24.3173+10.0616+22.8189Z" fill="#000000" stroke-linecap="butt" opacity="1" stroke-linejoin="round"/>
<path stroke="#ffffff" stroke-width="1" d="M76.4328+71.0086C76.8232+71.0086+77.114+71.1354+77.3154+71.5381C77.9053+73.3812+77.6684+75.6638+77.6684+77.7163C77.5385+77.7163+77.6009+77.6955+77.4919+77.8928C77.1683+77.8928+76.8446+77.8928+76.4328+77.8928C76.4328+76.7454+76.4328+75.9511+76.4328+74.7155C76.4328+73.3916+76.4328+72.4207+76.4328+71.0086Z" fill="#000000" stroke-linecap="butt" opacity="1" stroke-linejoin="round"/>
<path stroke="#ffffff" stroke-width="1" d="M9.17899+55.4749C9.51422+55.4749+9.87239+55.4622+10.2381+55.6514C10.2381+58.0837+9.88507+60.1507+9.88507+62.7122C9.47319+62.7122+9.14957+62.7122+8.64943+62.7122C8.64943+61.5411+9.09802+60.8937+9.14369+60.1173C9.22755+58.6917+8.59159+57.3536+9.17899+55.4749Z" fill="#000000" stroke-linecap="butt" opacity="1" stroke-linejoin="round"/>
<path stroke="#ffffff" stroke-width="1" d="M25.5953+78.0693C25.7424+78.0693+25.8895+78.0693+26.1248+78.0693C27.2864+79.3064+25.2495+84.7021+24.7127+86.1892C24.7127+80.7021+25.0873+82.277+25.5953+78.0693Z" fill="#000000" stroke-linecap="butt" opacity="1" stroke-linejoin="round"/>
<path stroke="#ffffff" stroke-width="1" d="M25.5953+44.3542C24.8815+46.9559+24.7127+48.9726+24.7127+51.5915L24.8892+51.5915C25.1014+50.495+25.434+49.4427+25.9483+48.5907C25.9483+49.7308+25.3869+50.9491+24.8892+51.9445C23.9037+49.6757+24.6019+46.6611+25.5953+44.3542Z" fill="#000000" stroke-linecap="butt" opacity="1" stroke-linejoin="round"/>
<path stroke="#ffffff" stroke-width="1" d="M19.9467+35.7048C22.7011+35.7048+25.7977+36.651+28.0665+38.176L28.0665+38.8821C23.132+36.5914+18.9759+37.2933+19.9467+35.7048Z" fill="#000000" stroke-linecap="butt" opacity="1" stroke-linejoin="round"/>
<path stroke="#ffffff" stroke-width="1" d="M34.5977+69.4199C35.065+69.7314+35.235+70.0302+35.6569+70.479C36.0755+72.1536+37.1681+73.5014+37.9516+75.0685C37.628+75.0685+37.3044+75.0685+36.8925+75.0685C36.1009+74.1552+35.2706+71.8202+34.7743+70.6555C34.7743+70.2285+34.5977+69.9411+34.5977+69.4199Z" fill="#000000" stroke-linecap="butt" opacity="1" stroke-linejoin="round"/>
<path stroke="#ffffff" stroke-width="1" d="M31.0674+88.484C31.3157+90.1959+32.1486+91.6175+32.4795+93.4265C31.4314+92.6197+30.1514+91.7404+29.8317+90.2492C30.2615+91.2009+31.1169+92.1651+31.95+92.7204C31.6285+91.2219+31.0674+89.9943+31.0674+88.484Z" fill="#000000" stroke-linecap="butt" opacity="1" stroke-linejoin="round"/>
<path stroke="#ffffff" stroke-width="1" d="M77.1388+55.2984C78.7485+55.2984+80.3875+55.1298+81.3753+56.534C79.7396+56.534+77.9059+56.653+76.4328+55.8279C76.4328+55.5046+76.8178+55.4749+77.1388+55.2984Z" fill="#000000" stroke-linecap="butt" opacity="1" stroke-linejoin="round"/>
<path stroke="#ffffff" stroke-width="1" d="M65.1355+89.0135C66.5779+89.4578+67.8858+90.1495+69.1955+90.9552C69.1955+91.22+69.1955+91.4848+69.1955+91.8378C67.4333+91.8378+64.8508+90.8299+63.3703+89.8961C63.3703+89.702+63.3161+89.5091+63.5469+89.3666L63.5469+89.7196C65.2291+90.8048+67.1797+91.0727+69.019+91.6613C69.019+91.4259+69.019+91.2788+69.019+91.1318C67.6781+90.3026+66.4143+89.7412+65.1355+89.0135Z" fill="#000000" stroke-linecap="butt" opacity="1" stroke-linejoin="round"/>
<path stroke="#ffffff" stroke-width="1" d="M2.47127+63.5948C2.62988+63.5948+2.70669+63.5654+2.82431+63.7713C2.49849+66.5675+2.64779+69.2113+2.64779+72.2442C2.91256+72.2442+3.17734+72.2442+3.53038+72.2442C3.53038+70.685+3.53038+69.4787+3.53038+67.8312C3.76519+69.3533+3.88342+70.6646+3.88342+72.4207L2.47127+72.4207C2.47127+69.3905+2.47127+66.7133+2.47127+63.5948Z" fill="#000000" stroke-linecap="butt" opacity="1" stroke-linejoin="round"/>
<path stroke="#ffffff" stroke-width="1" d="M52.7792+95.3682C54.3795+95.769+55.4908+96.3157+56.6026+96.8588C57.7143+97.4019+58.8265+97.9414+60.193+98.1925C60.3798+98.1925+60.3695+98.2923+60.3695+98.5456C57.7984+97.4365+55.3563+96.4697+52.7792+95.3682Z" fill="#000000" stroke-linecap="butt" opacity="1" stroke-linejoin="round"/>
<path stroke="#ffffff" stroke-width="1" d="M38.6577+22.8189L39.3638+22.8189C38.5268+24.8458+33.8446+26.7376+31.7734+28.1144C32.284+26.0723+36.8296+23.9094+38.6577+22.8189Z" fill="#000000" stroke-linecap="butt" opacity="1" stroke-linejoin="round"/>
<path stroke="#ffffff" stroke-width="1" d="M43.0707+61.1235C44.3776+61.1235+45.2895+61.1991+46.601+61.4765C46.2795+62.5815+39.8287+63.0652+38.1281+63.0652L38.1281+62.7122C39.7435+62.205+41.2127+61.3+43.0707+61.1235Z" fill="#000000" stroke-linecap="butt" opacity="1" stroke-linejoin="round"/>
<path stroke="#ffffff" stroke-width="1" d="M81.7283+22.1128C84.0412+22.8736+86.1873+25.6958+87.3769+27.7614C85.7588+27.2532+82.8833+23.6528+81.7283+22.1128Z" fill="#000000" stroke-linecap="butt" opacity="1" stroke-linejoin="round"/>
<path stroke="#ffffff" stroke-width="1" d="M12.3563+43.8246C15.3858+44.582+18.5693+46.1013+21.0058+48.0611C18.1795+47.3545+14.5161+46.0127+12.3563+43.8246Z" fill="#000000" stroke-linecap="butt" opacity="1" stroke-linejoin="round"/>
<path stroke="#ffffff" stroke-width="1" d="M79.7866+33.5865C82.4954+34.7644+87.0234+37.6885+87.73+40.8238C86.7409+40.5765+83.3953+37.2211+82.4697+36.4638C81.9965+36.0766+79.1965+34.4136+79.7866+33.5865Z" fill="#000000" stroke-linecap="butt" opacity="1" stroke-linejoin="round"/>
<path stroke="#ffffff" stroke-width="1" d="M16.5398+91.8731C18.7071+91.6323+21.2976+91.3222+23.8301+92.0143C22.2886+92.2505+20.929+92.1823+19.5783+92.1913C18.2277+92.2004+16.8861+92.2867+15.3572+92.8969C14.6773+92.8969+14.3118+92.8976+14.0156+92.7381C12.8963+92.1354+16.2217+91.9085+16.5398+91.8731Z" fill="#000000" stroke-linecap="butt" opacity="1" stroke-linejoin="round"/>
<path stroke="#ffffff" stroke-width="1" d="M12.8859+3.40177C14.9065+3.90692+16.4912+5.92667+16.9458+7.99127C16.6811+7.99127+16.4163+7.99127+16.0632+7.99127C16.1852+7.43508+16.2398+7.09424+16.2398+6.4026C14.9768+6.08686+14.298+6.13228+14.298+4.46089C13.6861+4.3186+13.337+4.00323+12.8859+3.40177Z" fill="#000000" stroke-linecap="butt" opacity="1" stroke-linejoin="round"/>
<path stroke="#ffffff" stroke-width="1" d="M24.5362+65.1834C26.1809+66.811+26.8309+69.8248+26.8309+72.2442C26.6838+72.2442+26.5367+72.2442+26.3013+72.2442C25.0186+70.9011+24.1362+67.7111+24.3596+65.8895C24.3596+68.075+25.4226+70.2205+26.4779+72.0677L26.6544+72.0677C26.6544+69.4591+25.4383+68.0026+24.8892+65.5365C24.7184+65.5365+24.5663+65.7712+24.3596+65.8895C24.3596+65.6031+24.5362+65.5343+24.5362+65.1834Z" fill="#000000" stroke-linecap="butt" opacity="1" stroke-linejoin="round"/>
<path stroke="#ffffff" stroke-width="1" d="M20.1232+26.3493C22.1916+26.3493+22.4645+28.4025+24.0066+29.1736C23.7376+29.3963+23.66+29.5266+23.124+29.5266C23.124+29.3967+23.1448+29.4591+22.9475+29.3501C22.3707+27.8436+21.1113+27.6667+20.1232+26.3493Z" fill="#000000" stroke-linecap="butt" opacity="1" stroke-linejoin="round"/>
<path stroke="#ffffff" stroke-width="1" d="M16.9458+74.539C17.0929+74.539+17.24+74.539+17.4754+74.539C17.4754+74.6688+17.4546+74.6064+17.6519+74.7155C17.6519+77.2416+16.0632+79.355+16.0632+80.8936C15.7366+80.8936+15.6155+80.7171+15.1806+80.7171C15.666+78.7755+15.308+76.2525+16.9458+74.539Z" fill="#000000" stroke-linecap="butt" opacity="1" stroke-linejoin="round"/>
<path stroke="#ffffff" stroke-width="1" d="M31.2439+84.6005C31.2439+84.7304+31.2231+84.668+31.4204+84.7771C31.4204+85.9177+31.7033+87.4667+31.0674+88.484C31.0674+89.9943+31.6285+91.2219+31.95+92.7204C31.1169+92.1651+30.2615+91.2009+29.8317+90.2492C29.5441+88.8206+29.6627+85.0565+31.2439+84.6005Z" fill="#000000" stroke-linecap="butt" opacity="1" stroke-linejoin="round"/>
<path stroke="#ffffff" stroke-width="1" d="M39.5403+53.3567C41.0407+53.3567+42.1881+53.3567+43.7767+53.3567L43.7767+54.0627C41.9574+54.6441+39.9253+54.2388+38.3223+54.5217C37.5036+54.6662+36.5755+55.5877+35.7981+55.5279C35.3062+55.49+35.1116+55.0827+34.9508+54.2393C36.4027+53.7915+37.8941+53.5332+39.5403+53.3567Z" fill="#000000" stroke-linecap="butt" opacity="1" stroke-linejoin="round"/>
<path stroke="#ffffff" stroke-width="1" d="M35.6569+84.424C37.0262+84.424+39.3801+86.9759+40.2463+87.9544C40.899+88.9333+41.835+89.2758+41.835+90.7787C39.7044+89.3583+37.4776+86.9694+35.8334+84.9536C35.8334+84.7577+35.6569+84.7434+35.6569+84.424Z" fill="#000000" stroke-linecap="butt" opacity="1" stroke-linejoin="round"/>
<path stroke="#ffffff" stroke-width="1" d="M52.2496+52.2976C54.5108+52.2976+56.3728+52.2492+58.6043+52.6506L58.6043+52.8271C58.0946+52.9545+49.5166+53.5332+48.3662+53.5332C48.3662+53.4033+48.387+53.4657+48.1897+53.3567L48.1897+52.6506C49.6389+52.6506+50.7163+52.4741+52.2496+52.2976Z" fill="#000000" stroke-linecap="butt" opacity="1" stroke-linejoin="round"/>
<path stroke="#ffffff" stroke-width="1" d="M52.2496+30.7622C53.8269+31.2555+54.5917+32.6347+54.8974+34.2926C53.9563+34.0573+51.2451+31.9001+52.2496+30.7622Z" fill="#000000" stroke-linecap="butt" opacity="1" stroke-linejoin="round"/>
<path stroke="#ffffff" stroke-width="1" d="M73.4319+59.3583C73.579+59.3583+73.7261+59.3583+73.9615+59.3583C73.9615+60.7043+73.2571+61.5606+72.9024+62.8887C71.6015+63.2139+71.5837+64.7321+70.4311+65.36C70.4311+62.5878+71.8413+61.4792+73.4319+59.3583Z" fill="#000000" stroke-linecap="butt" opacity="1" stroke-linejoin="round"/>
<path stroke="#ffffff" stroke-width="1" d="M72.3728+85.1301C74.1576+85.6989+75.9709+86.3876+76.9623+88.1309C75.7007+87.1373+74.0537+86.3223+72.3728+86.0127L72.3728+85.1301Z" fill="#000000" stroke-linecap="butt" opacity="1" stroke-linejoin="round"/>
<path stroke="#ffffff" stroke-width="1" d="M96.909+27.2318C98.2504+30.4795+97.3519+32.4873+98.3211+35.3517C97.5268+35.3517+97.0855+35.3517+96.2029+35.3517C96.2029+32.6438+97.6408+30.068+96.909+27.2318Z" fill="#000000" stroke-linecap="butt" opacity="1" stroke-linejoin="round"/>
<path stroke="#ffffff" stroke-width="1" d="M82.2579+82.6588C84.0473+83.2293+89.2474+87.7838+89.6717+89.7196C89.2961+89.5939+89.3956+89.6194+89.2934+89.5683C88.2954+89.0693+87.9597+88.0541+87.1475+87.3895C85.4774+86.0231+83.6174+84.9141+81.5518+83.5414C81.5518+83.3943+81.5518+83.2472+81.5518+83.0119C81.8382+83.0119+81.9071+82.8354+82.2579+82.6588Z" fill="#000000" stroke-linecap="butt" opacity="1" stroke-linejoin="round"/>
<path stroke="#ffffff" stroke-width="1" d="M43.4237+5.52001C45.8333+5.52001+47.3152+6.02103+49.1076+6.73799C50.0028+7.09605+50.9239+6.46739+52.2496+7.2852L52.2496+7.46171C49.4428+7.46171+47.1882+6.45067+44.7476+6.57912C44.3093+6.60219+43.8044+6.82792+43.3707+6.75564C43.0536+6.70278+42.9667+6.46481+42.7176+5.87304C43.004+5.87304+43.0729+5.69652+43.4237+5.52001Z" fill="#000000" stroke-linecap="butt" opacity="1" stroke-linejoin="round"/>
<path stroke="#ffffff" stroke-width="1" d="M10.2381+85.4831C12.6132+85.4831+16.2406+84.7912+18.358+86.0127C15.6739+87.1492+13.0626+86.1892+9.88507+86.1892C9.88507+85.9042+9.95504+85.8545+10.2381+85.4831Z" fill="#000000" stroke-linecap="butt" opacity="1" stroke-linejoin="round"/>
<path stroke="#ffffff" stroke-width="1" d="M48.5427+34.9987C50.1526+36.5864+52.6877+37.9803+53.1322+40.4708C49.9567+40.4708+50.2221+36.3083+47.8367+35.8813C48.0623+35.6802+48.1861+35.3536+48.5427+34.9987Z" fill="#000000" stroke-linecap="butt" opacity="1" stroke-linejoin="round"/>
<path stroke="#ffffff" stroke-width="1" d="M80.8457+3.40177C81.8621+3.40177+82.4925+3.55856+83.4935+3.75481L83.4935+3.93133C81.6531+3.93133+79.747+4.71128+78.1979+5.69652C78.1979+5.42479+77.9708+5.11637+77.8449+4.81392C78.9476+4.53825+79.6314+3.83285+80.8457+3.40177Z" fill="#000000" stroke-linecap="butt" opacity="1" stroke-linejoin="round"/>
<path stroke="#ffffff" stroke-width="1" d="M39.8933+40.8238C40.6966+41.0489+41.2474+41.1333+42.0115+41.5299L42.0115+41.7064C38.6486+41.7064+36.0991+42.2046+32.8325+42.942C33.6492+40.4757+37.7643+41.0003+39.8933+40.8238Z" fill="#000000" stroke-linecap="butt" opacity="1" stroke-linejoin="round"/>
<path stroke="#ffffff" stroke-width="1" d="M3.53038+7.99127C6.55117+9.32515+10.4945+8.70577+14.1215+12.0512C12.9448+12.0512+4.00566+8.62498+3.53038+7.99127Z" fill="#000000" stroke-linecap="butt" opacity="1" stroke-linejoin="round"/>
<path stroke="#ffffff" stroke-width="1" d="M63.8999+88.837C64.3269+88.837+64.6143+89.0135+65.1355+89.0135C66.4143+89.7412+67.6781+90.3026+69.019+91.1318C69.019+91.2789+69.019+91.4259+69.019+91.6613C67.1797+91.0727+65.2291+90.8048+63.5469+89.7196L63.5469+89.3666C63.7631+89.3666+63.8999+89.1087+63.8999+88.837Z" fill="#000000" stroke-linecap="butt" opacity="1" stroke-linejoin="round"/>
<path stroke="#ffffff" stroke-width="1" d="M29.3022+48.7672C29.5669+48.7672+29.8317+48.7672+30.1848+48.7672C30.1848+48.897+30.164+48.8346+30.3613+48.9437C30.3613+51.5887+29.7724+54.8075+31.4204+57.2401C28.2105+55.1002+29.0013+52.3136+29.3022+48.7672Z" fill="#000000" stroke-linecap="butt" opacity="1" stroke-linejoin="round"/>
<path stroke="#ffffff" stroke-width="1" d="M81.7283+60.2409C81.9572+61.2875+79.993+65.2405+79.6984+66.4191C79.5396+67.0542+79.4943+68.0383+78.551+68.5373C79.1693+66.0639+79.9193+63.8693+80.4927+61.3C80.7224+60.9555+80.8476+60.8146+80.9844+60.6862C81.1212+60.5577+81.2697+60.4417+81.7283+60.2409Z" fill="#000000" stroke-linecap="butt" opacity="1" stroke-linejoin="round"/>
<path stroke="#ffffff" stroke-width="1" d="M58.4278+3.22526C57.2988+3.22526+56.2598+3.37689+55.2505+2.87222L55.6035+2.87222L55.6035+2.6957C55.7903+2.6957+55.78+2.59594+55.78+2.34266C56.7257+2.10623+57.7332+2.54568+58.4278+3.22526Z" fill="#000000" stroke-linecap="butt" opacity="1" stroke-linejoin="round"/>
<path stroke="#ffffff" stroke-width="1" d="M49.4253+23.7015C50.3966+23.7015+51.0112+23.878+52.0731+23.878L52.0731+24.231C50.3392+24.231+48.5037+27.3211+47.2542+26.3493C46.5976+25.8386+48.7158+24.2336+49.4253+23.7015Z" fill="#000000" stroke-linecap="butt" opacity="1" stroke-linejoin="round"/>
<path stroke="#ffffff" stroke-width="1" d="M10.2381+69.9495L10.9442+69.9495C10.4951+71.4051+10.9442+72.9102+10.9442+74.539C10.8143+74.539+10.8767+74.5182+10.7677+74.7155C10.444+74.7155+10.1204+74.7155+9.70855+74.7155C9.70855+73.0872+10.2381+71.8413+10.2381+69.9495Z" fill="#000000" stroke-linecap="butt" opacity="1" stroke-linejoin="round"/>
<path stroke="#ffffff" stroke-width="1" d="M45.0124+46.1194C47.678+46.1194+50.132+45.8807+52.7792+46.4724C50.9802+48.2672+46.9108+46.8255+44.3063+46.8255C44.3063+46.4575+44.5676+46.2959+45.0124+46.1194Z" fill="#000000" stroke-linecap="butt" opacity="1" stroke-linejoin="round"/>
<path stroke="#ffffff" stroke-width="1" d="M60.193+68.7138C60.7616+70.9882+60.5408+73.5903+60.0165+75.9511C59.8866+75.9511+59.949+75.9303+59.84+76.1276C59.6929+76.1276+59.5458+76.1276+59.3104+76.1276C59.3104+73.1992+59.1363+71.1783+60.193+68.7138Z" fill="#000000" stroke-linecap="butt" opacity="1" stroke-linejoin="round"/>
<path stroke="#ffffff" stroke-width="1" d="M93.5551+71.8912C93.9081+71.8912+94.1729+71.8912+94.4377+71.8912C95.2535+73.3463+96.0264+74.559+96.0264+76.4807C95.462+75.3699+94.562+73.1318+93.5551+72.2442L93.5551+71.8912Z" fill="#000000" stroke-linecap="butt" opacity="1" stroke-linejoin="round"/>
<path stroke="#ffffff" stroke-width="1" d="M18.358+19.2885C20.6644+19.2885+22.0179+20.2241+23.6536+21.5832C22.049+21.5832+19.6983+20.2937+18.358+19.2885Z" fill="#000000" stroke-linecap="butt" opacity="1" stroke-linejoin="round"/>
<path stroke="#ffffff" stroke-width="1" d="M41.1289+29.5266C41.9545+29.5266+42.4267+29.5369+43.2472+29.7031C41.6296+31.3392+38.6385+31.0001+39.1872+34.1161C38.7754+34.1161+38.4517+34.1161+37.9516+34.1161C37.9516+33.9862+37.9724+34.0486+37.7751+33.9396C37.7751+31.9999+38.8901+31.885+39.7168+30.4092C40.2041+30.1045+40.5283+29.977+41.1289+29.5266Z" fill="#000000" stroke-linecap="butt" opacity="1" stroke-linejoin="round"/>
<path stroke="#ffffff" stroke-width="1" d="M12.3563+50.8854C14.4394+50.8854+16.9008+52.3369+18.358+53.7097C16.4682+53.7097+12.7722+52.7306+11.8268+51.0619C11.9739+51.0619+12.121+51.0619+12.3563+50.8854Z" fill="#000000" stroke-linecap="butt" opacity="1" stroke-linejoin="round"/>
<path stroke="#ffffff" stroke-width="1" d="M50.8375+79.305C51.7612+79.305+52.3498+79.5562+52.7792+80.3641C54.571+80.3641+57.4273+81.9466+58.4278+83.3649C55.2083+83.3649+53.7935+80.659+50.8375+79.8345L50.8375+79.305Z" fill="#000000" stroke-linecap="butt" opacity="1" stroke-linejoin="round"/>
<path stroke="#ffffff" stroke-width="1" d="M22.5944+56.8871C24.5972+57.7119+26.7325+58.7571+27.89+60.7705C25.5094+59.7567+23.9706+59.4322+22.5944+56.8871Z" fill="#000000" stroke-linecap="butt" opacity="1" stroke-linejoin="round"/>
<path stroke="#ffffff" stroke-width="1" d="M86.4943+12.9338C87.2887+12.9338+87.73+12.9338+88.6126+12.9338L88.6126+13.1103C86.7644+13.5724+85.0356+13.6709+83.6524+14.5931C80.5392+16.6685+77.902+13.9964+85.2411+13.1809C85.5142+13.1506+85.779+13.1103+86.4943+12.9338Z" fill="#000000" stroke-linecap="butt" opacity="1" stroke-linejoin="round"/>
<path stroke="#ffffff" stroke-width="1" d="M61.2521+48.2376C62.9169+48.2376+65.9181+49.7961+66.7242+51.2384C64.4547+51.2384+62.8817+49.9453+61.2521+48.5907C61.1968+48.4471+61.1269+48.3809+61.1058+48.3285C61.0847+48.2761+61.1123+48.2376+61.2521+48.2376Z" fill="#000000" stroke-linecap="butt" opacity="1" stroke-linejoin="round"/>
<path stroke="#ffffff" stroke-width="1" d="M67.9598+12.7573C69.3683+12.7573+70.8582+13.4023+71.8433+14.346C70.3369+13.8784+69.0453+13.6922+67.4303+13.2868C67.4303+13.0706+67.6881+12.9338+67.9598+12.7573Z" fill="#000000" stroke-linecap="butt" opacity="1" stroke-linejoin="round"/>
<path stroke="#ffffff" stroke-width="1" d="M64.4295+55.1219C64.0353+56.9651+63.9696+60.4839+61.6052+61.1235C61.6052+58.5506+62.4977+56.7657+64.4295+55.1219Z" fill="#000000" stroke-linecap="butt" opacity="1" stroke-linejoin="round"/>
<path stroke="#ffffff" stroke-width="1" d="M1.94171+53.1802C4.43761+54.2516+2.54703+55.9032+2.11823+57.5931C1.97113+57.5931+1.82403+57.5931+1.58867+57.5931C1.58867+56.0342+1.6557+54.8962+1.94171+53.1802Z" fill="#000000" stroke-linecap="butt" opacity="1" stroke-linejoin="round"/>
<path stroke="#ffffff" stroke-width="1" d="M46.601+85.8362L46.9541+85.8362C48.4897+87.4005+50.319+89.149+50.8375+91.4848C49.2174+90.8513+46.9273+87.7937+46.601+85.8362Z" fill="#000000" stroke-linecap="butt" opacity="1" stroke-linejoin="round"/>
<path stroke="#ffffff" stroke-width="1" d="M93.5551+71.7147C93.807+71.7147+94.2573+71.6225+94.4377+71.8912C94.1729+71.8912+93.9081+71.8912+93.5551+71.8912L93.5551+72.2442C93.0396+71.3898+92.0285+70.5352+90.9073+70.3025C92.1953+69.6737+92.8959+70.6004+93.5551+71.7147Z" fill="#000000" stroke-linecap="butt" opacity="1" stroke-linejoin="round"/>
<path stroke="#ffffff" stroke-width="1" d="M77.3154+71.5381C78.2203+73.1716+77.8449+75.8462+77.8449+77.8928C77.715+77.8928+77.7775+77.872+77.6684+78.0693L76.2562+78.0693C76.2562+76.8137+76.2406+75.9105+76.4328+74.7155C76.4328+75.9511+76.4328+76.7454+76.4328+77.8928C76.8446+77.8928+77.1683+77.8928+77.4919+77.8928C77.6009+77.6955+77.5385+77.7163+77.6684+77.7163C77.6684+75.6638+77.9053+73.3812+77.3154+71.5381Z" fill="#000000" stroke-linecap="butt" opacity="0" stroke-linejoin="round"/>
<path stroke="#ffffff" stroke-width="1" d="M26.3013+44.3542C26.6356+45.6913+26.2526+47.1651+25.9483+48.5907C25.434+49.4427+25.1014+50.495+24.8892+51.5915L24.7127+51.5915C24.7127+48.9726+24.8815+46.9559+25.5953+44.3542C25.5953+43.9592+26.0449+44.3542+26.3013+44.3542Z" fill="#000000" stroke-linecap="butt" opacity="1" stroke-linejoin="round"/>
<path stroke="#ffffff" stroke-width="1" d="M6.70772+14.5225C8.86989+15.063+10.9479+16.6069+13.2389+17.3468C13.2389+17.7362+13.218+18.0111+13.4154+18.4059C11.8661+18.4059+7.44636+16.0317+6.70772+14.5225Z" fill="#000000" stroke-linecap="butt" opacity="1" stroke-linejoin="round"/>
<path stroke="#ffffff" stroke-width="1" d="M86.8474+48.5907C88.7651+49.1812+90.912+49.4733+92.849+49.4733L92.849+49.6498C90.6627+49.6498+88.9395+49.4733+86.8474+49.4733C86.5826+49.4733+86.3178+49.4733+85.9648+49.4733C86.0689+48.9664+86.3375+48.7965+86.8474+48.5907Z" fill="#000000" stroke-linecap="butt" opacity="1" stroke-linejoin="round"/>
<path stroke="#ffffff" stroke-width="1" d="M53.8383+61.4765C56.2169+61.4765+57.7433+62.4804+60.0165+62.8887C60.0165+63.0358+60.0165+63.1829+60.0165+63.4183C57.7468+62.8508+55.2726+62.3591+52.7792+62.3591C53.0166+61.9307+53.2059+61.7514+53.8383+61.4765Z" fill="#000000" stroke-linecap="butt" opacity="1" stroke-linejoin="round"/>
<path stroke="#ffffff" stroke-width="1" d="M2.82431+63.7713C3.24869+64.4971+3.29931+65.0832+3.32222+65.6758C3.34514+66.2684+3.34035+66.8676+3.53038+67.8312C3.53038+69.4787+3.53038+70.685+3.53038+72.2442C3.17734+72.2442+2.91256+72.2442+2.64779+72.2442C2.64779+69.2113+2.49849+66.5675+2.82431+63.7713Z" fill="#000000" stroke-linecap="butt" opacity="1" stroke-linejoin="round"/>
<path stroke="#ffffff" stroke-width="1" d="M28.5961+15.7581C29.4099+15.9885+29.8632+16.1066+30.1318+16.6054C30.7528+17.7586+30.4954+19.3555+30.9085+20.5947C31.1997+21.4684+32.1265+21.9237+32.1265+23.3484C29.7635+23.3484+28.3817+17.5751+28.5961+15.7581Z" fill="#000000" stroke-linecap="butt" opacity="1" stroke-linejoin="round"/>
<path stroke="#ffffff" stroke-width="1" d="M61.4286+39.5882C63.424+40.2335+65.5882+40.8275+66.9007+42.589C65.1045+42.589+62.5875+41.6047+61.0756+40.6473C61.0756+40.2661+61.2608+40.0743+61.4286+39.5882Z" fill="#000000" stroke-linecap="butt" opacity="1" stroke-linejoin="round"/>
<path stroke="#ffffff" stroke-width="1" d="M25.0657+98.7221C22.3245+97.8055+19.9224+98.4649+17.1223+98.1925C18.6283+98.1925+20.3764+98.2678+21.8884+97.8395L21.8884+97.663C20.4994+97.145+19.4325+98.0098+18.1815+97.4864C19.463+97.8722+23.2717+96.4309+25.0657+98.7221Z" fill="#000000" stroke-linecap="butt" opacity="1" stroke-linejoin="round"/>
<path stroke="#ffffff" stroke-width="1" d="M60.0165+14.346C61.5983+14.346+62.7753+14.699+64.4295+14.699C64.4295+14.8461+64.4295+14.9932+64.4295+15.2286C62.8362+14.7294+60.4749+14.904+58.7809+15.4051C58.7809+15.1764+58.9574+14.9234+58.9574+14.5225C59.3814+14.5225+59.5265+14.7675+60.0165+14.346Z" fill="#000000" stroke-linecap="butt" opacity="1" stroke-linejoin="round"/>
<path stroke="#ffffff" stroke-width="1" d="M94.9673+93.0735C95.6946+93.0735+96.2481+93.1074+96.909+93.4265L96.909+93.603C95.0439+94.3591+93.3106+94.8202+91.6134+96.0743C91.6134+95.9444+91.6342+96.0068+91.4369+95.8978C91.4369+94.1756+93.7953+94.0265+94.9673+93.0735Z" fill="#000000" stroke-linecap="butt" opacity="1" stroke-linejoin="round"/>
<path stroke="#ffffff" stroke-width="1" d="M36.0099+8.87386C37.4537+9.41925+36.15+10.143+36.2041+11.0627C36.2695+12.1746+37.0412+13.1842+36.716+14.699C34.476+13.9647+34.7564+10.5451+36.0099+8.87386Z" fill="#000000" stroke-linecap="butt" opacity="1" stroke-linejoin="round"/>
<path stroke="#ffffff" stroke-width="1" d="M82.7874+75.0685L84.1996+75.0685C86.0325+76.8929+87.2148+79.0359+89.0539+80.5406C89.6369+81.0176+90.8104+81.2333+91.0586+81.978C91.0658+81.9994+91.0754+82.02+91.0838+82.4823C87.6236+81.645+84.4082+78.4865+82.7874+75.0685Z" fill="#000000" stroke-linecap="butt" opacity="1" stroke-linejoin="round"/>
<path stroke="#ffffff" stroke-width="1" d="M72.1963+45.0603C73.8052+45.0603+76.1334+45.9831+77.4919+46.8255L77.4919+47.002C75.6924+47.4519+74.1885+46.692+72.3728+46.2959C72.3728+45.9268+72.1963+45.6877+72.1963+45.0603Z" fill="#000000" stroke-linecap="butt" opacity="1" stroke-linejoin="round"/>
<path stroke="#ffffff" stroke-width="1" d="M50.4845+72.2442C51.014+72.2442+51.4553+72.2442+52.0731+72.2442C50.654+74.3729+46.8079+74.1995+44.4828+74.7155C45.8809+73.2715+48.3961+72.974+50.4845+72.2442Z" fill="#000000" stroke-linecap="butt" opacity="1" stroke-linejoin="round"/>
<path stroke="#ffffff" stroke-width="1" d="M69.9016+35.8813C71.8383+36.6731+72.8918+37.3738+74.491+38.7056C73.0462+38.3444+71.6705+37.4008+70.0781+36.9404C70.0781+36.6122+70.1389+36.3834+69.9016+35.8813Z" fill="#000000" stroke-linecap="butt" opacity="1" stroke-linejoin="round"/>
<path stroke="#ffffff" stroke-width="1" d="M23.8301+92.0143C24.0168+92.0143+24.0066+92.1141+24.0066+92.3674C21.155+92.3674+18.184+92.263+15.3572+92.8969C16.8861+92.2867+18.2277+92.2004+19.5783+92.1913C20.929+92.1823+22.2886+92.2505+23.8301+92.0143Z" fill="#000000" stroke-linecap="butt" opacity="1" stroke-linejoin="round"/>
<path stroke="#ffffff" stroke-width="1" d="M56.8391+8.16779C59.5982+8.16779+61.8414+9.49234+64.0764+10.9921L64.0764+11.1686C62.3546+10.6227+61.1943+9.56454+59.6811+9.29751C58.4986+9.08883+57.7145+9.62167+56.8391+8.57126C56.8267+8.55631+56.8195+8.53764+56.8391+8.16779Z" fill="#000000" stroke-linecap="butt" opacity="1" stroke-linejoin="round"/>
<path stroke="#ffffff" stroke-width="1" d="M18.1815+97.4864C19.4325+98.0098+20.4994+97.145+21.8884+97.663L21.8884+97.8395C20.3764+98.2678+18.6283+98.1925+17.1224+98.1925C16.2036+98.4754+15.3537+98.369+14.298+98.369C14.298+98.2219+14.298+98.0748+14.298+97.8395C15.6853+97.8395+16.683+97.4864+18.1815+97.4864Z" fill="#000000" stroke-linecap="butt" opacity="1" stroke-linejoin="round"/>
<path stroke="#ffffff" stroke-width="1" d="M35.8334+84.9536C37.4776+86.9694+39.7044+89.3583+41.835+90.7787C41.835+89.2758+40.899+88.9333+40.2463+87.9544C41.2849+88.8891+42.0115+89.2262+42.0115+90.9552C40.5287+90.4963+36.6495+86.4122+35.8334+84.9536Z" fill="#000000" stroke-linecap="butt" opacity="1" stroke-linejoin="round"/>
<path stroke="#ffffff" stroke-width="1" d="M69.1955+26.7023C71.1507+26.7023+71.8851+28.7577+73.785+29.1736C73.785+29.3034+73.7642+29.241+73.9615+29.3501C73.9615+29.6876+74.138+29.8618+74.138+30.2327C72.521+28.6369+69.9812+28.8199+68.6659+27.0553C68.9008+27.0553+68.9443+27.0417+69.1955+26.7023Z" fill="#000000" stroke-linecap="butt" opacity="1" stroke-linejoin="round"/>
<path stroke="#ffffff" stroke-width="1" d="M73.6084+7.10867L74.3145+7.10867C73.6446+8.11358+73.2717+9.87685+71.6667+9.57994C72.3132+8.79366+72.8856+8.07244+73.6084+7.10867Z" fill="#000000" stroke-linecap="butt" opacity="1" stroke-linejoin="round"/>
<path stroke="#ffffff" stroke-width="1" d="M9.88507+31.1153C11.428+31.1153+12.2556+31.1532+13.4154+31.9979C11.5182+31.9979+3.75399+33.0964+3.12439+32.9511C2.6573+32.8433+2.62499+32.5023+2.29475+31.8213C2.8523+31.4363+3.53937+31.4987+3.90107+31.5389C5.93623+31.765+7.54887+31.6213+9.88507+31.1153Z" fill="#000000" stroke-linecap="butt" opacity="1" stroke-linejoin="round"/>
<path stroke="#ffffff" stroke-width="1" d="M52.7792+94.3091C55.4627+94.98+58.0695+96.4675+60.193+98.1925C58.8265+97.9414+57.7143+97.4019+56.6026+96.8588C55.4908+96.3157+54.3795+95.769+52.7792+95.3682C52.7792+95.0446+52.7792+94.721+52.7792+94.3091Z" fill="#000000" stroke-linecap="butt" opacity="1" stroke-linejoin="round"/>
<path stroke="#ffffff" stroke-width="1" d="M88.9656+59.0053C90.4841+60.0176+91.7742+60.9793+93.2021+62.1826C91.5673+61.6684+89.4031+61.1736+88.9656+59.0053Z" fill="#000000" stroke-linecap="butt" opacity="1" stroke-linejoin="round"/>
<path stroke="#ffffff" stroke-width="1" d="M95.3203+49.8263L95.3203+50.0028C92.3408+50.0028+89.7584+49.7512+86.8474+49.4733C88.9395+49.4733+90.6627+49.6498+92.849+49.6498L92.849+49.4733C90.912+49.4733+88.7651+49.1812+86.8474+48.5907C89.3258+48.2875+92.7379+49.1186+95.3203+49.8263Z" fill="#000000" stroke-linecap="butt" opacity="1" stroke-linejoin="round"/>
<path stroke="#ffffff" stroke-width="1" d="M27.3605+0.930508C28.879+2.41382+28.369+5.867+27.3605+7.63823L26.6544+7.63823C25.8068+6.77896+26.4999+2.07796+27.3605+0.930508Z" fill="#000000" stroke-linecap="butt" opacity="1" stroke-linejoin="round"/>
</g>
</g>
</svg>
