<?xml version="1.0" encoding="UTF-8" standalone="no"?> <!-- Created with Vectornator for iOS (http://vectornator.io/) --><!DOCTYPE svg PUBLIC "-//W3C//DTD SVG 1.1//EN" "http://www.w3.org/Graphics/SVG/1.1/DTD/svg11.dtd">
<svg height="100%" style="fill-rule:nonzero;clip-rule:evenodd;stroke-linecap:round;stroke-linejoin:round;" xmlns:xlink="http://www.w3.org/1999/xlink" xmlns="http://www.w3.org/2000/svg" xml:space="preserve" width="100%" xmlns:vectornator="http://vectornator.io" version="1.1" viewBox="0 0 100 100">
<metadata>
<vectornator:setting key="DimensionsVisible" value="1"/>
<vectornator:setting key="PencilOnly" value="0"/>
<vectornator:setting key="SnapToPoints" value="0"/>
<vectornator:setting key="OutlineMode" value="0"/>
<vectornator:setting key="CMYKEnabledKey" value="0"/>
<vectornator:setting key="RulersVisible" value="1"/>
<vectornator:setting key="SnapToEdges" value="0"/>
<vectornator:setting key="GuidesVisible" value="1"/>
<vectornator:setting key="DisplayWhiteBackground" value="0"/>
<vectornator:setting key="doHistoryDisabled" value="0"/>
<vectornator:setting key="SnapToGuides" value="1"/>
<vectornator:setting key="TimeLapseWatermarkDisabled" value="0"/>
<vectornator:setting key="Units" value="Points"/>
<vectornator:setting key="DynamicGuides" value="0"/>
<vectornator:setting key="IsolateActiveLayer" value="0"/>
<vectornator:setting key="SnapToGrid" value="0"/>
</metadata>
<defs/>
<g id="Untitled" vectornator:layerName="Untitled">
<g opacity="1">
<path stroke="#000000" stroke-width="1" d="M28.8998+98.2746C28.8998+98.6373+28.7225+98.7776+28.7225+98.9838C26.5062+98.9838+24.6446+98.9838+22.3397+98.9838C24.8919+98.0532+26.1638+97.5906+28.8998+98.2746Z" fill="#ffffff" stroke-linecap="butt" opacity="1" stroke-linejoin="round"/>
<path stroke="#000000" stroke-width="1" d="M99.2876+92.601C99.2876+93.4579+99.2876+93.9603+99.2876+94.9059C98.7892+95.2222+98.4711+95.5038+97.8692+95.7924C97.5636+97.0148+97.0724+98.1186+96.0962+98.9838C95.1801+98.9838+94.6187+98.9838+93.614+98.9838C95.6846+96.7593+96.7797+94.2729+99.2876+92.601Z" fill="#ffffff" stroke-linecap="butt" opacity="1" stroke-linejoin="round"/>
<path stroke="#000000" stroke-width="1" d="M19.1483-1.01298C19.8871-1.01298+20.2712-1.01298+21.0986-1.01298C20.7088-0.440888+20.5526+0.0790234+20.2121+0.760007C21.435+0.45428+22.2026-0.542679+23.4035-1.01298C25.3242-1.01298+26.8904-1.01298+28.8998-1.01298L28.8998-0.658385C27.6952+1.14848+19.7351-0.877842+17.6413+7.49738C17.2357+9.11983+17.1994+10.7789+18.4391+12.4618C19.4773+13.395+20.7029+13.9464+21.4532+15.2985C24.9741+14.0988+29.3532+13.0082+32.4458+10.8661C31.4979+8.03787+29.9468+5.96336+29.2544+2.8876C30.0497+2.67898+30.3452+2.2344+30.8323+2.07203C32.1297+1.63958+33.6471+1.72477+34.9989+1.27418C36.2282+0.864404+37.2105-0.0111592+38.6512-0.658385C38.7562-0.658385+39.115-0.856249+39.1831-1.01298C42.5223-1.01298+45.5068-1.01298+48.9346-1.01298C48.9346-0.860064+49.0959-0.763027+49.2892-0.658385C49.7612+0.0496421+50.6527+1.03238+51.2395+1.1678C51.3418+1.19141+59.6641+0.513702+60.6009+0.458601C63.3171+0.298828+67.9723+3.31189+68.5439+3.25993C68.5739+3.2572+68.6035+3.25013+68.6325+3.2422C69.6575+2.96267+70.2343+0.491827+70.9197-0.658385L71.097-0.658385L71.097-1.01298C71.8357-1.01298+72.2199-1.01298+73.0473-1.01298L73.0473-0.835681C72.1573+0.767044+70.4847+2.80237+70.2282+4.34145C70.059+5.35693+72.2232+5.64742+71.753+6.68181C71.1729+7.95802+69.9571+6.98222+69.1467+6.07899C67.755+7.00681+66.7866+8.48548+65.6539+9.41221C62.923+11.6465+59.1368+12.5259+56.062+14.1816C54.1741+15.1981+53.1478+17.2919+51.1863+18.3481C49.5631+19.2221+47.6878+19.1705+45.5659+19.5537C45.5659+21.3917+44.7208+29.0259+42.0199+27.1776C43.6812+25.1523+43.1452+22.0596+43.9702+19.5537C42.2053+20.1149+40.0858+19.731+38.1193+19.731C38.1193+20.588+38.1193+21.0903+38.1193+22.0359C37.5874+22.0359+37.1442+22.0359+36.5236+22.0359C36.5236+21.2381+36.5236+20.7948+36.5236+19.9083C34.6108+19.9083+30.4955+20.238+30.4955+22.9224C29.8019+22.9224+29.4383+22.9626+28.7225+23.0997C28.7225+19.3201+32.7655+18.3126+35.9917+18.3126C32.9682+11.911+35.4651+11.4843+28.3856+14.5184C26.7334+15.2265+24.4969+15.5423+22.6943+16.7169C24.7668+19.8257+27.8671+23.2867+28.5452+27.1776C28.0133+27.1776+27.57+27.1776+26.9495+27.1776C25.3305+22.5038+23.1425+18.485+18.5278+23.0997C18.2939+23.3336+18.0068+23.662+18.0668+24.0217C18.1228+24.3575+21.0799+27.066+21.5773+27.674C22.4956+28.7964+23.2555+30.9053+24.8219+31.7874C25.45+33.3981+27.045+35.6374+28.8998+36.0426C28.8998+36.173+28.8789+36.1103+29.0771+36.2199C29.0771+36.8235+29.1496+37.161+29.2544+37.8155C27.1022+37.8155+25.286+35.8438+24.29+34.0923C24.1422+34.0923+23.9945+34.0923+23.7581+34.0923C22.6806+37.2769+19.086+44.2723+16.0633+45.2798C14.4232+45.8266+12.5594+45.0704+10.8153+44.1983C10.8153+45.917+11.2454+47.2845+11.1699+48.7194C10.9373+53.138+9.26421+57.916+7.62387+62.4601C10.2907+63.3493+13.2687+64.8449+15.0704+67.0699C13.7813+69.0036+10.7028+65.1953+6.73737+64.0558C6.39353+65.4312+5.86167+66.468+5.49628+67.9564C4.85256+67.8029+4.50765+67.728+3.90058+67.4245C4.64206+66.4505+5.03996+64.6654+5.31898+63.3466C5.18854+63.3466+5.25122+63.3675+5.14168+63.1693C3.20699+62.5464+1.5018+61.7557+0+63.1693C0+62.0169+0+61.219+0+59.9779C1.03875+59.0441+2.00193+58.1869+2.88998+57.4603C3.88181+56.6488+5.61163+56.9837+4.66297+58.1695C4.04095+58.947+2.99707+59.3505+2.12759+60.3325C3.34727+60.9372+4.52443+61.1494+6.02817+61.5736C7.0046+58.6669+7.83113+56.1233+8.68766+53.0633C9.7906+51.0347+9.64531+47.749+9.39686+45.4394C8.91071+44.5458+8.60126+43.78+8.33306+42.6026C7.49152+41.8941+1.66158+37.5977+1.47158+37.6737C0.833788+37.9288+0.667729+39.0845+0+39.7658L0+34.0923C0.44259+34.3448+0.680168+34.4044+1.24109+34.6242C3.20609+28.9988+6.73139+24.5943+9.75146+19.5537C8.76612+19.3074+8.09596+19.0218+6.91467+19.0218C6.91467+18.3422+6.91467+18.0171+6.91467+17.2488C9.11851+18.1735+13.9123+18.7134+16.3115+22.7451C16.4593+22.7451+16.607+22.7451+16.8434+22.7451C18.5612+21.0205+19.7273+19.9598+22.3397+19.3764C21.9221+18.75+21.6705+17.9826+20.9213+17.6034C20.5816+16.2448+19.2179+14.8382+18.2618+14.3234C17.2203+13.7626+3.33874+10.5361+2.67722+10.6888C0.0328057+11.299-0.288049+17.1781+0.354599+19.5537C0.354599+23.0243+1.9983+26.1875+2.30489+29.6598L2.30489+30.0144C1.77299+30.0144+1.32974+30.0144+0.709197+30.0144C0.709197+29.3347+0.709197+29.0097+0.709197+28.2414C0.578757+28.2414+0.641442+28.2623+0.531898+28.0641C0.384148+28.0641+0.236399+28.0641+0+28.0641C0+20.8244+0+13.9392+0+6.61089C0.759497+7.11722+1.43342+7.37567+2.30489+7.85198C2.89121+8.58663+3.79401+7.59798+4.18426+7.33781C5.21351+6.65164+6.17136+5.87232+7.26927+5.28114C8.28049+4.73664+13.5163+3.98927+11.879+5.99034C11.5447+6.39896+6.64882+6.55165+4.60978+9.09307C8.24541+10.5763+12.2718+10.3849+16.1342+11.7526C15.3675+7.21221+17.2739+3.58452+18.971-0.481084C19.2028-0.624207+19.1483-0.818024+19.1483-1.01298ZM42.1972-0.835681C39.0046+1.55875+35.1621+3.5968+31.2047+3.5968C31.6792+5.43447+32.4702+8.16147+33.6868+9.44767C34.273+9.16879+34.6042+8.79227+34.7506+8.20658C37.6074+8.84746+34.7541+10.2133+34.9457+11.3625C35.1055+12.3214+37.2114+16.3919+37.7647+18.1353C40.0782+18.1353+41.9223+17.958+44.1475+17.958C45.3758+10.7654+44.7233+7.92848+49.8211+2.3557C46.2011-0.49229+47.4975-0.835681+42.1972-0.835681ZM56.0266+2.17841C49.8176+2.3557+55.3041+4.96206+56.0266+7.85198C55.4159+8.13267+55.0984+8.243+54.6082+8.56118C53.7781+6.90104+52.372+4.58824+50.8849+3.5968C50.2844+4.22014+49.693+4.51181+49.3246+4.962C46.7641+8.09157+45.9205+13.5028+45.9205+17.7807C47.7005+17.7807+49.345+17.4438+50.5303+16.8056C52.1895+15.9122+53.2904+14.2088+54.7323+13.0291C58.7981+9.70251+64.2944+9.98868+67.7283+4.83789C62.4894+2.21844+62.1259+2.17841+56.0266+2.17841ZM11.3472+20.7948C9.21337+22.2034+2.91885+33.4702+2.48219+35.8653C3.67755+37.2818+6.20506+39.5562+7.97846+40.1204C8.85585+37.4837+10.4351+36.4195+12.2336+34.6242C13.1439+33.3355+15.8464+25.4045+15.6378+24.5004C15.3773+23.3714+12.7163+21.2121+11.3472+20.7948ZM16.8434+25.7592C16.3083+28.9699+15.3874+32.579+14.0953+34.9788C12.9479+37.1096+9.57416+38.1018+9.57416+40.741C9.57416+41.8372+10.8307+42.3041+11.6486+42.7445C12.8168+43.3735+14.7046+44.1294+15.9924+43.4359C17.7303+42.5002+22.5702+34.4947+22.5702+32.5675C22.5702+31.2038+18.5107+26.2849+16.8434+25.7592Z" fill="#ffffff" stroke-linecap="butt" opacity="1" stroke-linejoin="round"/>
<path stroke="#000000" stroke-width="1" d="M2.12759-1.01298C5.17123-1.01298+7.86027-1.01298+10.9926-1.01298C10.9926-0.333338+10.9926-0.00828948+10.9926+0.760007L9.57416+0.760007C9.57416+0.156362+9.50167-0.181144+9.39686-0.835686C6.88512-0.835686+4.72798-0.835686+2.12759-0.835686L2.12759-1.01298Z" fill="#ffffff" stroke-linecap="butt" opacity="1" stroke-linejoin="round"/>
<path stroke="#000000" stroke-width="1" d="M0-1.01298C0.797846-1.01298+1.24109-1.01298+2.12759-1.01298L2.12759-0.835683C1.31707-0.295338+0.94206+0.439409+0+0.937309C0+0.198562+0-0.185586+0-1.01298Z" fill="#ffffff" stroke-linecap="butt" opacity="1" stroke-linejoin="round"/>
<path stroke="#000000" stroke-width="1" d="M22.3397+55.1909C22.6836+59.4095+23.9354+63.2641+23.9354+67.6018C23.6901+65.3562+23.3282+63.3806+22.9905+61.4102C22.6529+59.4398+22.3397+57.4747+22.3397+55.1909Z" fill="#ffffff" stroke-linecap="butt" opacity="1" stroke-linejoin="round"/>
<path stroke="#000000" stroke-width="1" d="M82.976-1.01298C84.3649-1.01298+85.3991-1.01298+86.8766-1.01298C91.043+1.15883+89.5693+2.68543+94.3232-1.01298C96.1141-1.01298+97.5582-1.05513+99.2876-0.835681C98.2001-0.835681+97.3483-0.963466+96.6458-0.729306C95.6018-0.381289+94.6429+1.01967+93.7026+1.64651C93.2392+1.95548+91.5506+2.54586+91.6637+3.22447C91.9883+5.17223+95.0827+6.73728+96.8054+7.85198C97.4683+8.65367+98.512+7.35328+99.2876+6.96548C99.2876+8.41343+99.2876+9.50677+99.2876+11.0434C94.904+9.02887+94.0747+16.7372+94.8551+19.5537C94.8551+21.7916+96.3272+27.3229+96.8054+30.0144C96.2735+30.0144+95.8302+30.0144+95.2097+30.0144C95.2097+29.3347+95.2097+29.0097+95.2097+28.2414C95.0792+28.2414+95.1419+28.2623+95.0324+28.0641C94.8374+28.0641+94.6436+28.0096+94.5005+28.2414C91.977+28.2414+89.1868+28.9822+86.6993+29.6598C87.7931+32.8893+90.4226+35.0928+90.4226+38.8793C89.7642+38.7274+89.3639+38.6615+88.6496+38.5247C88.6496+36.648+87.719+35.1628+87.0185+33.8618C86.5438+32.9802+85.7752+30.7736+84.7313+30.4754C83.4375+30.1057+73.3224+34.3811+73.2246+35.4575C73.2117+35.5986+73.2609+35.7201+73.3487+35.8298C76.4289+39.6801+81.801+41.5421+83.4902+46.6096C83.8395+47.6576+83.8618+48.7703+84.2171+50.2265L84.3944+50.2265C84.9882+48.3719+85.9192+47.1281+86.8766+45.4394C87.1716+45.4394+87.4085+45.3231+87.4085+44.9075C87.7157+44.8097+95.3993+38.2433+94.4473+36.1489C93.967+35.0923+92.0304+34.323+90.7772+33.5604C90.9324+32.9397+91.1864+32.5851+91.4864+31.9647C92.676+33.0709+94.331+33.632+95.7416+34.6242C96.4713+32.3957+97.6862+29.2405+99.2876+27.5322C99.2876+28.8028+99.2876+29.7189+99.2876+31.0782C96.4794+36.5172+96.5698+34.3692+99.2876+37.8155C99.2876+38.6134+99.2876+39.0566+99.2876+39.9431C98.473+39.4001+96.6904+37.3864+95.9721+37.6737C94.9381+38.0873+94.1135+40.8594+93.3835+41.7516C90.5611+45.2011+87.0925+46.8809+85.9369+51.503C85.769+52.1747+85.3838+53.0421+85.5823+53.737C86.2465+56.0615+92.3326+60.3814+94.6955+59.8361C95.5636+59.6358+96.3255+58.3317+97.0004+57.7794C97.3822+57.467+98.5116+56.2839+99.2876+57.1412C99.2876+57.4662+99.2876+57.7913+99.2876+58.205C98.3549+58.9102+97.4466+59.4185+96.6281+60.3325C97.4406+60.7892+98.3638+60.9097+99.2876+61.3963C99.2876+62.076+99.2876+62.401+99.2876+63.1693C98.0301+62.9077+96.282+61.7532+95.2983+62.2828C94.757+62.5743+94.6363+63.3547+94.4118+63.8785C92.4058+68.5593+93.4982+76.2658+95.387+81.4312C95.5174+81.4312+95.4547+81.4103+95.5643+81.6085C96.8397+81.2252+97.9077+81.2307+99.2876+80.8993C99.2876+81.5789+99.2876+81.9039+99.2876+82.6722C98.7623+82.6722+98.5751+82.7416+98.4011+82.7609C97.8212+82.8253+96.347+82.9704+95.9721+83.4524C95.4549+84.1173+96.6464+92.753+92.3374+96.2002C92.094+96.3949+91.805+96.3351+91.575+96.147C91.3711+95.9801+91.159+95.7426+91.1141+95.4733C91.0155+94.8817+95.9054+88.5781+94.1459+83.736C89.7349+85.2595+84.9704+85.7419+81.0257+88.5231C83.147+89.4557+84.5595+90.2961+87.2312+90.2961C87.2312+90.9758+87.2312+91.3008+87.2312+92.0691C80.1166+92.0691+80.1242+86.553+75.1749+94.7286C78.4149+94.7286+85.385+96.7735+87.7631+98.9838C86.4925+98.9838+85.5764+98.9838+84.2171+98.9838C82.4276+98.0004+75.7143+95.686+74.1997+96.5016C73.5043+96.876+73.4038+98.0356+72.87+98.9838C72.1312+98.9838+71.7471+98.9838+70.9197+98.9838C71.1894+97.905+71.7908+96.9919+72.3381+95.9697C71.1265+95.9697+70.2696+95.9697+68.9694+95.9697C68.9694+95.4378+68.9694+94.9945+68.9694+94.374C70.5355+94.374+71.7471+94.374+73.4019+94.374C75.0933+92.6724+75.7329+90.1982+78.0117+88.8777C74.3415+85.4447+73.8601+83.4659+70.5828+86.1473C69.6081+86.9448+68.4562+87.7766+67.7283+89.2323C67.2117+88.8911+66.7474+88.8305+66.1326+88.5231C67.6591+86.6519+68.9614+84.7152+71.2743+83.5587C61.941+80.0036+53.8787+72.6666+49.4665+87.1047C52.0736+87.9722+54.1747+88.7004+57.0903+88.7004C57.0903+89.3626+57.1172+89.6648+57.2676+90.2961C54.647+90.2961+51.3953+90.2356+49.1119+88.7004C49.1119+89.6165+49.1119+90.1779+49.1119+91.1826C48.4322+91.1826+48.1072+91.1826+47.3389+91.1826C47.3389+90.0762+47.2317+89.1456+47.5162+87.9912C45.7868+87.5589+44.3987+86.6957+42.5518+86.2182C42.0974+88.0358+39.8923+90.9826+40.0696+92.4237C42.3441+92.9923+44.1081+95.6151+46.1864+95.6151C48.8836+95.6151+51.6164+95.2605+54.7855+95.2605C54.7855+95.7924+54.7855+96.2356+54.7855+96.8562C52.2801+96.8562+50.157+96.8675+47.6935+97.2108C48.4274+97.6388+48.8002+98.3511+49.4665+98.9838C48.5504+98.9838+47.989+98.9838+46.9843+98.9838C45.4821+96.7304+43.4227+98.2462+41.488+98.9838C40.3356+98.9838+39.5377+98.9838+38.2966+98.9838C40.0478+98.1858+41.3227+96.7908+43.4383+96.3243C41.7094+95.5344+40.0407+93.4795+37.942+93.6648C36.0962+91.8281+32.1082+91.5372+29.4317+91.5372C29.4317+90.8576+29.4317+90.5325+29.4317+89.7642C35.937+89.7642+38.8654+94.5276+40.9561+85.509C39.9308+85.2168+39.0846+85.4342+37.942+85.1544C37.942+84.6225+37.942+84.1793+37.942+83.5587C39.2021+83.5587+40.3743+83.5743+41.6653+83.9133C41.963+82.7224+42.4199+81.8531+42.7291+80.5447C41.3326+80.1955+39.4163+79.2268+38.2789+79.5518C37.3236+79.8247+37.232+81.727+36.1513+81.6439C34.5528+81.5209+35.6924+80.0796+36.169+79.1263C30.1275+79.1263+23.8509+86.8641+19.6802+83.9133C19.6802+84.0611+19.6802+84.2088+19.6802+84.4452C19.8107+84.4452+19.748+84.4243+19.8575+84.6225C20.768+84.873+21.1435+85.2324+21.8078+85.8636C21.9632+86.4854+22.0328+86.8693+22.1624+87.6366C21.8374+87.6366+21.5123+87.6366+21.0986+87.6366C21.9649+89.7238+22.3397+92.0139+22.3397+94.374C21.807+96.0605+21.5551+97.3617+20.744+98.9838C20.0644+98.9838+19.7393+98.9838+18.971+98.9838C19.3798+97.638+20.0322+96.7228+20.5667+95.4378C20.9342+92.0657+19.9074+89.8883+18.7937+86.7501C17.388+86.0778+9.44009+90.3983+9.14864+91.6613C8.82125+93.08+10.6269+96.9673+10.9926+98.9838C10.4607+98.9838+10.0174+98.9838+9.39686+98.9838C8.71056+96.8748+8.29649+94.8391+7.80117+92.601C6.03418+93.163+4.98949+94.8768+3.36868+95.7924C3.06307+97.0148+2.57192+98.1186+1.59569+98.9838C1.0638+98.9838+0.620547+98.9838+0+98.9838C0+98.7178+0+98.4519+0+98.0973C1.43995+97.1373+1.46468+95.6669+2.30489+94.6399C3.47846+93.2056+5.34632+92.3021+6.91467+90.828C7.17429+88.9663+6.04692+84.5762+5.49628+82.4949C5.27167+82.4949+4.94988+82.4208+4.78708+82.6722C3.78951+82.6722+1.87692+82.9312+1.47158+83.4524C0.74052+84.3923+2.06512+90.6753+0+92.601C0+87.7844+0+83.3223+0+78.4171C0.380577+81.9722+1.62066+82.0594+4.96438+80.8993C5.28522+78.1805+4.66152+74.9203+6.38277+72.3889C7.70797+70.7477+9.09689+69.5521+11.5244+69.5521C11.5244+70.084+11.5244+70.5273+11.5244+71.1478C6.58089+71.1478+6.73737+77.0707+6.73737+80.5447C8.59398+79.9501+10.2697+79.9949+12.2336+79.4809C12.2336+80.1107+12.2883+80.4222+12.4109+81.0766C12.2805+81.0766+12.3432+81.0557+12.2336+81.2539C10.4962+81.2539+8.82779+81.7632+7.09197+82.1403C7.09197+84.7812+8.05005+87.0023+8.51036+89.5869C9.94391+88.2019+15.9447+84.7998+18.0845+84.7998C16.6761+81.6285+17.3452+77.9691+18.0845+74.6938C16.3696+75.0258+14.4441+75.8093+12.5882+76.2895C12.5882+75.6098+12.5882+75.2848+12.5882+74.5165C14.402+74.5165+16.7367+73.71+18.2618+72.7435C18.2618+72.4184+18.2618+72.0934+18.2618+71.6797C20.2858+71.6797+22.5556+69.0799+24.29+67.9564L24.29+67.6018L23.9354+67.6018C23.9354+63.2641+22.6836+59.4095+22.3397+55.1909C19.7225+55.8164+16.8247+58.7027+15.2477+61.0417C14.6178+60.8933+14.2744+60.622+13.652+60.3325C14.3727+57.45+20.8983+54.7982+21.6305+53.1874C22.5805+51.0973+18.4962+45.718+21.0986+44.1983C22.5415+45.6824+22.8283+50.1942+23.4035+52.3541C26.789+51.2036+31.5123+51.9815+34.1124+49.8542C35.9024+48.3896+32.8519+45.1563+31.7366+44.9075C31.7366+44.2279+31.7366+43.9028+31.7366+43.1345C32.9609+42.8284+34.7957+41.2424+35.6371+40.2977C34.5346+38.911+32.0515+34.6474+31.7188+33.2058C31.5998+32.6901+31.9208+32.2899+32.0912+31.4328C33.8395+31.988+35.9756+38.702+37.1087+38.702C37.8175+38.702+39.0516+36.9719+39.5377+36.4858C41.3728+34.6508+43.0331+32.7308+44.6794+30.5463C41.9223+29.857+37.6246+27.0689+35.4598+30.1917C34.772+30.1917+34.2991+30.132+33.6868+29.8371C34.5893+24.4143+43.479+28.5798+45.4595+29.1456C46.5083+29.4453+46.6739+27.7272+48.4027+28.2414C48.2273+28.9454+47.6163+29.6586+47.7467+30.0498C48.013+30.8488+52.0982+32.753+52.8884+32.1065C54.6635+30.6542+55.8167+22.5903+57.2322+19.9615C59.9998+14.8217+71.4831+14.5355+76.9479+15.4758C75.3268+8.99165+77.6804+6.90216+78.4549+8.91577C78.7057+9.56782+77.585+11.4642+77.923+12.8164C78.2074+13.9539+78.7501+15.024+79.0754+16.5396C82.6045+12.7597+86.7216+11.2207+92.0183+11.2207C92.0183+11.9003+92.0183+12.2254+92.0183+12.9937C86.7966+12.9937+79.7163+15.8244+80.6711+19.1991C84.5964+20.5459+90.5763+20.5555+93.9686+22.9224C91.7146+13.9064+93.4632+16.0259+94.5005+9.97957C94.9164+9.97957+95.3297+9.83093+95.7416+9.62497C95.07+8.61755+93.6166+8.12057+92.9048+7.40873C92.0233+6.52727+90.9448+4.46437+89.8552+3.96913C88.6541+3.42315+82.7531+7.33798+80.8484+7.49738C80.5256+6.99325+80.4719+6.58618+80.3165+6.07899C81.7126+4.73681+87.6291+3.6127+88.0822+2.47981C88.4219+1.63072+84.1322-0.594923+82.976-0.835681L82.976-1.01298ZM69.6786+16.7169C67.7673+16.8942+61.423+17.8705+60.4058+18.7027C57.7568+20.8701+57.3495+25.0351+56.328+28.0995C55.8518+29.5279+55.661+31.2379+54.945+32.5675C54.7664+32.8992+54.0505+33.2044+54.094+33.5958C54.0973+33.6258+54.1005+33.6565+54.1117+33.6845C54.2875+34.1239+59.8714+37.58+60.8136+37.8155C60.5327+38.4266+60.4261+38.7925+60.2817+39.4112C58.8595+38.5218+57.4252+37.7981+56.2393+37.1595C49.1813+33.3591+52.9074+35.2261+47.1616+39.0566C46.7629+38.8573+46.5281+38.5247+46.0978+38.5247C45.9205+37.2847+49.5998+34.5962+50.5303+33.5604C49.5052+32.9689+47.405+31.5931+46.5588+31.7342C45.7558+31.868+45.126+33.2024+44.5908+33.7377C43.8379+34.4905+38.0689+40.1577+37.9775+40.4928C37.8105+41.1049+39.0179+42.9457+39.5377+43.6664C38.9272+43.9815+38.6173+44.2107+37.942+44.3756C37.4494+43.4824+36.9357+42.6552+36.7009+41.7161C35.8536+42.1558+34.1243+43.3821+34.0237+43.9856C33.9005+44.7248+35.9401+47.2124+37.0555+47.2124C37.0555+48.4098+40.6335+53.3612+41.2575+53.4179C42.0568+53.4905+43.274+52.2857+43.9702+51.9108C44.4093+51.6744+45.419+51.4919+45.5659+50.9534C45.7032+50.4499+41.607+44.8357+41.1334+43.3118C44.3577+43.3118+45.9608+50.1357+47.7821+50.4393C49.5493+50.7338+52.0354+49.8719+54.2536+49.8719C54.2536+50.4924+54.2536+50.9357+54.2536+51.4676C52.2138+51.4676+50.5942+51.5403+48.7573+51.9995C49.3676+53.1242+53.84+59.4274+54.1649+59.4815C55.6675+59.7319+60.0926+56.1334+60.8136+57.6731C61.1244+57.0223+61.273+56.736+61.7001+56.7688C62.5446+56.8338+63.3166+57.6089+64.1823+57.7617C67.3071+58.3131+71.0703+56.7502+73.1005+54.2689C73.6157+53.6392+74.8775+50.1747+75.1749+48.9854C75.8826+49.1206+76.1696+49.367+76.7706+49.5173C76.2331+50.4703+75.7823+51.6972+75.5295+52.7087C76.8884+52.0942+81.6083+48.3858+81.6817+47.2833C81.7993+45.5202+72.8351+36.6211+71.3984+36.7517C69.961+36.8824+64.6165+44.2874+63.8809+45.7585C63.7846+45.9511+65.0688+50.964+65.0688+52.3541C64.3005+52.3541+63.9755+52.3541+63.2958+52.3541C63.2958+46.6151+62.7769+47.5784+58.686+48.9854C58.5834+48.2855+58.6329+47.9925+58.5087+47.3897C63.0732+46.5994+59.7698+44.9324+60.6895+43.8083C61.5558+42.7494+62.0641+44.9249+62.9058+44.2515C64.5222+42.9584+65.407+40.4458+66.7177+38.8439C67.6539+37.6996+69.0838+36.7575+70.0332+35.3334C66.8108+33.7221+64.6702+31.2555+60.8136+31.2555C60.8136+30.4872+60.8136+30.1621+60.8136+29.4825C64.8892+29.4825+70.5289+34.2219+71.5225+34.1455C72.5296+34.068+76.2267+31.6506+77.3556+31.0427C79.3421+29.9731+81.7057+29.7631+84.0398+28.7733C82.5504+25.7944+79.8792+23.1231+79.0754+19.9083C75.8284+21.8247+75.6093+25.6496+68.2602+28.2414C68.1313+27.5604+68.0454+27.2517+67.9056+26.6457C70.1579+26.2408+78.0025+19.9322+77.8344+18.0821C77.7204+16.8289+74.513+16.7169+73.6678+16.7169C72.8404+16.7169+72.013+16.7169+71.1856+16.7169C70.8015+16.7169+70.4173+16.7169+69.6786+16.7169ZM81.5576+21.1494C83.5087+23.1488+83.7788+26.3952+85.6355+28.2414C88.7051+27.7002+91.5564+26.4684+94.6778+26.4684C94.6778+25.5392+94.5427+24.7799+94.3232+23.9862C93.9561+24.1759+93.614+24.275+93.614+24.6954C90.3433+22.4197+85.3011+22.0853+81.5576+21.1494ZM82.0895+49.5173C72.8738+56.7394+72.3289+55.6869+80.4938+64.765C82.2546+62.1809+84.3509+53.6855+82.4441+49.5173L82.0895+49.5173ZM24.6446+58.7369C24.6446+61.7396+25.3538+64.3001+25.3538+67.2472C25.6232+67.2472+25.8857+67.3226+25.8857+67.0699C28.1621+66.661+39.5436+56.2436+39.6796+54.7476C39.7152+54.3558+37.043+50.9026+36.5236+50.2265C26.4336+56.3539+23.1332+49.3563+24.6446+58.7369ZM46.6297+52.5314C45.2126+53.0108+43.3638+53.9589+42.3745+54.8363C47.1933+60.4561+45.0326+62.654+52.126+60.1552C50.2794+57.4567+48.854+54.8202+46.6297+52.5314ZM41.4526+56.7334C41.3481+56.6057+41.1823+56.4477+41.0093+56.432C40.3606+56.373+37.4009+59.7824+36.8782+60.4212C35.3679+62.2672+32.8147+63.6797+31.382+65.8288C32.3867+65.8288+32.9481+65.8288+33.8642+65.8288C33.8642+66.4494+33.8642+66.8926+33.8642+67.4245C29.8283+68.1267+28.6471+67.7199+25.5843+70.2258C24.9768+70.7229+24.0205+71.0252+23.2262+71.6797L23.2262+71.857C25.4896+72.4646+30.3911+72.6731+33.5096+73.4527C33.388+74.1609+33.3003+74.4669+33.155+75.0484C30.7645+74.5172+21.8623+72.4742+20.3894+73.9846C19.7843+75.4954+19.4411+76.6445+19.222+77.8195C19.003+78.9944+18.9081+80.1952+19.1483+81.7858C25.6464+85.0348+27.8339+77.3533+37.2328+77.3533C37.5877+76.6437+42.1779+66.4382+42.3745+65.6515C41.2359+65.4322+40.5285+65.2969+39.3604+65.2969C39.3604+64.5286+39.3604+64.2036+39.3604+63.5239C41.0532+63.5239+42.2004+64.1267+43.3851+64.1267C43.9283+64.1267+44.2301+63.6739+44.6085+63.3644C44.9375+63.0952+45.5395+62.875+45.5836+62.3892C45.6391+61.7791+42.0568+57.472+41.4526+56.7334ZM84.9263+56.2547C84.5365+58.5935+81.474+66.3907+81.5044+66.7862C81.6279+68.3915+82.976+69.8109+82.976+71.857C86.3629+69.8546+87.6817+68.9047+91.4864+67.6018C92.0241+65.5621+92.1534+62.896+93.614+61.3963C89.6457+60.7054+87.8702+58.2173+84.9263+56.2547ZM72.6927+56.6093C71.213+57.5264+70.3523+58.66+69.058+59.0915C64.6864+60.5487+62.2403+58.1415+60.7959+58.3823C59.5734+58.586+57.0064+60.5308+54.9628+61.0417C58.7434+67.3183+65.4535+65.8684+71.1856+67.7791C72.1708+68.1075+75.4917+70.5306+76.0436+70.4386C77.0352+70.2733+79.1093+67.8594+79.2705+66.8926C79.6222+64.7822+73.0473+60.4693+73.0473+56.6093L72.6927+56.6093ZM52.3033+61.7509C41.7694+65.1203+43.1629+69.2164+39.0058+77.8852C40.3627+78.2095+42.3607+79.0626+43.3142+78.8426C45.0386+78.4446+46.1539+71.1478+57.0903+71.1478C57.0903+71.9161+57.0903+72.2411+57.0903+72.9208C52.513+72.9208+46.477+74.5954+45.2113+79.6582C45.9472+79.8+46.3257+79.8539+46.9843+80.0128C46.8457+80.6672+46.7693+81.003+46.6297+81.6085C45.7693+81.4416+45.1282+81.2539+44.3248+81.2539C44.0486+82.5607+43.5622+83.4176+43.261+84.6225C44.9797+84.9956+46.2648+85.7148+47.8708+86.2182C48.2547+84.092+49.3163+82.2327+50.2998+80.7574C57.0492+70.6333+70.1233+82.8247+73.0118+82.1581C73.9663+81.9378+78.9818+77.6879+78.8981+76.7682C78.8094+75.7917+77.008+74.1333+76.3273+73.4527C75.375+72.5004+71.1694+73.9846+69.1467+73.9846C69.1467+73.2163+69.1467+72.8912+69.1467+72.2116C71.1586+72.2116+72.5011+72.0717+74.1111+71.3251C63.748+66.1436+63.9784+69.7492+57.8173+66.4316C56.4386+65.6893+53.6302+61.7509+52.3033+61.7509ZM80.1392+68.6656C76.5988+72.1098+77.3561+72.0956+80.3165+75.2257C81.8849+72.5441+81.4778+71.593+80.4938+68.6656L80.1392+68.6656ZM84.3944+79.6582C83.6344+79.6582+83.2414+79.6906+82.6214+79.8355C82.2765+78.5299+82.0895+77.0392+82.0895+75.7576L81.7349+75.7576C79.7024+79.1935+77.2101+80.9357+74.4657+83.5587C76.1844+84.5346+77.3652+85.8908+78.6322+86.9274C78.9433+87.182+79.2693+87.5273+79.7137+87.4061C80.7939+87.1115+86.2365+83.9847+93.614+82.1403C93.2817+80.5007+92.8435+78.9025+92.4999+77.284C92.1563+75.6655+91.9073+74.0268+91.6637+72.3889C91.6637+71.202+91.4864+70.4708+91.4864+69.3748C89.2537+69.9728+84.4003+71.9728+83.6675+73.8782C83.2213+75.0384+83.9375+78.1801+84.3944+79.6582Z" fill="#ffffff" stroke-linecap="butt" opacity="1" stroke-linejoin="round"/>
</g>
</g>
</svg>
